<svg xmlns="http://www.w3.org/2000/svg" width="70" height="67.932" viewBox="0 0 70 67.932">
  <defs>
    <style>
      .cls-1 {
        fill: #fff;
      }
    </style>
  </defs>
  <g id="LOGO-perfectlancer-negative" transform="translate(-71.6 -104)">
    <path id="Path_758" data-name="Path 758" class="cls-1" d="M118.116,370.464q7.169-5.135,14.338-10.262c.257-.189.506-.386.764-.583.4-.232.669.077.944.266,3.381,2.351,6.83,4.616,10.211,6.985a2.25,2.25,0,0,1,.755.721c.215.721-.172,1.09-.729,1.467q-13.244,9-26.471,18.011a2.415,2.415,0,0,1-.8.815c-4.016,2.763-8.083,5.457-12.09,8.229-.309.215-.618.712-1.124.275,0-4.985.017-9.962-.017-14.939a2.09,2.09,0,0,1,.97-1.931c3.99-2.823,7.98-5.637,11.944-8.486A2.3,2.3,0,0,1,118.116,370.464Z" transform="translate(-29.526 -233.609)"/>
    <path id="Path_759" data-name="Path 759" class="cls-1" d="M115.6,133.98q-5.38-3.642-10.769-7.276c-.369-.249-.764-.463-1.141-.7-2.643-1.828-5.277-3.672-7.928-5.483q-11.635-7.941-23.279-15.865c-.24-.163-.463-.335-.884-.635h1.09c7.3,0,14.6.009,21.906-.017a3.213,3.213,0,0,1,1.871.575q9.164,6.075,18.362,12.107a1.606,1.606,0,0,1,.824,1.553C115.61,123.495,115.61,128.738,115.6,133.98Z"/>
    <path id="Path_760" data-name="Path 760" class="cls-1" d="M117.009,326.733q-6.757,4.775-13.5,9.559a1.258,1.258,0,0,0-.618,1.115c.026,5.114.026,10.237.034,15.351q.077.064.051.129c-.017.043-.043.06-.06.06-.369-.223-.189-.583-.189-.875q.013-15.393.043-30.787c0-.386-.026-.729.386-1q6.757-4.273,13.514-8.589c.283.309.154.635.154.935.009,4.376,0,8.752.017,13.128C116.821,326.081,116.632,326.467,117.009,326.733Z" transform="translate(-28.42 -189.878)"/>
    <path id="Path_761" data-name="Path 761" class="cls-1" d="M105.2,689.919a1.4,1.4,0,0,1,.017-.189q6.95-4.711,13.9-9.43v18.482C114.373,695.771,109.791,692.845,105.2,689.919Z" transform="translate(-30.717 -526.85)"/>
    <g id="Group_251" data-name="Group 251" transform="translate(107.973 142.346)">
      <path id="Path_762" data-name="Path 762" class="cls-1" d="M495.5,562.422V552.1h4.428v1.562h-2.874v2.814h2.1v1.562h-2.1v2.814h2.874v1.562H495.5Z" transform="translate(-495.5 -551.997)"/>
      <path id="Path_763" data-name="Path 763" class="cls-1" d="M560.154,552.2a2.4,2.4,0,0,1,1.913.712,2.579,2.579,0,0,1,.532,1.742v1.5a2.4,2.4,0,0,1-.832,1.853l1.15,4.5h-1.682l-.944-3.887h-1.038v3.887H557.7V552.2Zm.935,2.488a.794.794,0,0,0-.892-.9h-.935v3.3h.935a.824.824,0,0,0,.626-.266.867.867,0,0,0,.257-.635v-1.5Z" transform="translate(-552.363 -552.088)"/>
      <path id="Path_764" data-name="Path 764" class="cls-1" d="M633.753,562.422H632.2V552.1h4.428v1.562h-2.875v2.814h2.1v1.562h-2.1Z" transform="translate(-620.47 -551.997)"/>
      <path id="Path_765" data-name="Path 765" class="cls-1" d="M694.4,562.422V552.1h4.428v1.562h-2.875v2.814h2.1v1.562h-2.1v2.814h2.875v1.562H694.4Z" transform="translate(-677.333 -551.997)"/>
      <path id="Path_766" data-name="Path 766" class="cls-1" d="M759.071,561.463A2.461,2.461,0,0,1,756.6,559v-5.629a2.461,2.461,0,0,1,2.463-2.471,2.446,2.446,0,0,1,2.454,2.463v1.175H759.9v-1.21a.856.856,0,0,0-.266-.635.875.875,0,0,0-.635-.266.824.824,0,0,0-.626.266.867.867,0,0,0-.257.635v5.646a.848.848,0,0,0,.257.626.862.862,0,0,0,.626.257.882.882,0,0,0,.635-.257.87.87,0,0,0,.266-.626V557.55h1.613v1.442a2.35,2.35,0,0,1-.721,1.742A2.3,2.3,0,0,1,759.071,561.463Z" transform="translate(-734.196 -550.9)"/>
      <path id="Path_767" data-name="Path 767" class="cls-1" d="M826.356,553.762H824.7V552.2h4.857v1.562h-1.647v8.752h-1.553Z" transform="translate(-796.453 -552.088)"/>
    </g>
    <g id="Group_252" data-name="Group 252" transform="translate(90.692 155.209)">
      <path id="Path_768" data-name="Path 768" class="cls-1" d="M300.458,718.271H294.1V702.8h2.334v13.154h4.024Z" transform="translate(-294.1 -702.628)"/>
      <path id="Path_769" data-name="Path 769" class="cls-1" d="M383.095,714.81l-.566,3.561H380.1l2.634-15.471h3.209l2.591,15.471h-2.454l-.549-3.561Zm1.227-8.375-.867,6.1h1.725Z" transform="translate(-372.721 -702.72)"/>
      <path id="Path_770" data-name="Path 770" class="cls-1" d="M497.017,702.6l3.1,10.408V702.6h2.334v15.488h-2.505l-3.209-9.919v9.919H494.4V702.6Z" transform="translate(-477.213 -702.445)"/>
      <path id="Path_771" data-name="Path 771" class="cls-1" d="M608.907,716.64a3.691,3.691,0,0,1-3.707-3.69v-8.443a3.7,3.7,0,0,1,6.324-2.617,3.6,3.6,0,0,1,1.073,2.617v1.768h-2.42v-1.819a1.348,1.348,0,0,0-1.347-1.347,1.264,1.264,0,0,0-.944.395,1.322,1.322,0,0,0-.386.952v8.469a1.318,1.318,0,0,0,1.33,1.33,1.322,1.322,0,0,0,.952-.386,1.264,1.264,0,0,0,.395-.944v-2.137h2.42v2.162a3.517,3.517,0,0,1-1.09,2.617A3.57,3.57,0,0,1,608.907,716.64Z" transform="translate(-578.506 -700.8)"/>
      <path id="Path_772" data-name="Path 772" class="cls-1" d="M706.8,718.088V702.6h6.641v2.351h-4.307v4.222h3.149v2.343h-3.149v4.222h4.307v2.342H706.8Z" transform="translate(-671.388 -702.445)"/>
      <path id="Path_773" data-name="Path 773" class="cls-1" d="M799.872,702.8a3.568,3.568,0,0,1,2.866,1.073,3.928,3.928,0,0,1,.807,2.617v2.248a3.6,3.6,0,0,1-1.244,2.78l1.725,6.753H801.5l-1.416-5.826h-1.553v5.826H796.2V702.8Zm1.39,3.724a1.183,1.183,0,0,0-1.33-1.347h-1.407v4.951h1.407a1.264,1.264,0,0,0,.944-.395,1.322,1.322,0,0,0,.386-.952Z" transform="translate(-753.117 -702.628)"/>
    </g>
  </g>
</svg>
