<svg xmlns="http://www.w3.org/2000/svg" xmlns:xlink="http://www.w3.org/1999/xlink" width="486.934" height="549.464" viewBox="0 0 486.934 549.464">
  <defs>
    <clipPath id="clip-path">
      <rect width="486.934" height="549.464" fill="none"/>
    </clipPath>
    <clipPath id="clip-path-2">
      <path id="Path_222" data-name="Path 222" d="M363.4,0a62.52,62.52,0,0,1,53.864,30.78l99.552,168.947a62.519,62.519,0,0,1,0,63.479L417.266,432.154a62.52,62.52,0,0,1-53.864,30.78H162.072a62.52,62.52,0,0,1-53.864-30.78L8.656,263.206a62.52,62.52,0,0,1,0-63.479L108.208,30.78A62.52,62.52,0,0,1,162.072,0Z" transform="translate(-9869.065 -22437.854) rotate(90)" fill="#fff" stroke="#fff" stroke-width="12"/>
    </clipPath>
  </defs>
  <g id="Component_7_1" data-name="Component 7 – 1" clip-path="url(#clip-path)">
    <g id="Path_256" data-name="Path 256" transform="translate(474.934 11.996) rotate(90)" fill="#fff">
      <path d="M 363.4014282226563 468.9342956542969 L 162.0717163085938 468.9342956542969 C 137.9197845458984 468.9342956542969 115.2995758056641 456.0079956054688 103.0383605957031 435.1998596191406 L 3.486429452896118 266.2523498535156 C -9.156713485717773 244.7960815429688 -9.156713485717773 218.1382141113281 3.486429452896118 196.6818695068359 L 103.0384292602539 27.73443412780762 C 115.2995758056641 6.926290512084961 137.9197845458984 -5.999995231628418 162.0717163085938 -5.999995231628418 L 363.4014282226563 -5.999995231628418 C 387.5534362792969 -5.999995231628418 410.1736450195313 6.926290512084961 422.4347839355469 27.73443412780762 L 521.9866943359375 196.6818695068359 C 534.6299438476563 218.1382141113281 534.6299438476563 244.7960815429688 521.9866943359375 266.2523498535156 L 422.4347839355469 435.1998596191406 C 410.1736450195313 456.0079956054688 387.5534362792969 468.9342956542969 363.4014282226563 468.9342956542969 Z" stroke="none"/>
      <path d="M 162.0717163085938 0 C 139.9337158203125 0 119.4464111328125 11.70736694335938 108.2077331542969 30.78036499023438 L 8.65570068359375 199.7278442382813 C -2.88525390625 219.3136901855469 -2.88525390625 243.6205291748047 8.65570068359375 263.2063598632813 L 108.2076416015625 432.1538391113281 C 119.4464111328125 451.2268371582031 139.9337158203125 462.9342956542969 162.0716552734375 462.9342956542969 L 363.4014282226563 462.9342956542969 C 385.5394287109375 462.9342956542969 406.0267333984375 451.2268371582031 417.2655029296875 432.1538391113281 L 516.8174438476563 263.2063598632813 C 528.3583984375 243.62060546875 528.3583984375 219.3136901855469 516.8174438476563 199.7278442382813 L 417.2655029296875 30.78036499023438 C 406.0267333984375 11.70736694335938 385.5394287109375 0 363.4014282226563 0 L 162.0717163085938 0 M 162.0717163085938 -12 L 363.4014282226563 -12 C 389.6682739257813 -12 414.2692565917969 2.058135986328125 427.6041259765625 24.68838500976563 L 527.156005859375 193.6358337402344 C 540.9063720703125 216.9710693359375 540.9063720703125 245.9633026123047 527.156005859375 269.2984619140625 L 427.6041259765625 438.245849609375 C 414.2692565917969 460.8761596679688 389.6681823730469 474.9342956542969 363.4014282226563 474.9342956542969 L 162.0716552734375 474.9342956542969 C 135.8048706054688 474.9342956542969 111.2038879394531 460.8761596679688 97.8690185546875 438.245849609375 L -1.682861328125 269.2984008789063 C -15.43316650390625 245.9632263183594 -15.43316650390625 216.9709930419922 -1.682861328125 193.6357727050781 L 97.86911010742188 24.68838500976563 C 111.2038879394531 2.058135986328125 135.8048706054688 -12 162.0717163085938 -12 Z" stroke="none" fill="#fff"/>
    </g>
    <g id="Mask_Group_28" data-name="Mask Group 28" transform="translate(10344 22457.85)" clip-path="url(#clip-path-2)">
      <g id="Group_402" data-name="Group 402" transform="translate(1502 296.455)">
        <rect id="Rectangle_431" data-name="Rectangle 431" width="473.77" height="381.545" rx="10" transform="translate(-11870 -22671)" fill="#fff"/>
        <rect id="Rectangle_422" data-name="Rectangle 422" width="121.604" height="20.081" transform="translate(-11844.34 -22383.539)" fill="#999"/>
        <rect id="Rectangle_227" data-name="Rectangle 227" width="121.604" height="121.975" rx="5" transform="translate(-11843.598 -22621.541)" fill="#f6f6f6"/>
        <path id="Rectangle_264" data-name="Rectangle 264" d="M5,0H116.6a5,5,0,0,1,5,5V25.288a0,0,0,0,1,0,0H0a0,0,0,0,1,0,0V5A5,5,0,0,1,5,0Z" transform="translate(-11843.598 -22621.541)" fill="#c3c3c3"/>
        <circle id="Ellipse_80" data-name="Ellipse 80" cx="5.764" cy="5.764" r="5.764" transform="translate(-11786.328 -22553.859)" fill="#fff" opacity="0.4"/>
        <circle id="Ellipse_82" data-name="Ellipse 82" cx="0.558" cy="0.558" r="0.558" transform="translate(-11795.625 -22558.32)" fill="#fff"/>
        <circle id="Ellipse_83" data-name="Ellipse 83" cx="0.558" cy="0.558" r="0.558" transform="translate(-11797.112 -22558.32)" fill="#fff"/>
        <circle id="Ellipse_85" data-name="Ellipse 85" cx="0.558" cy="0.558" r="0.558" transform="translate(-11765.875 -22544.563)" fill="#fff"/>
        <path id="Rectangle_423" data-name="Rectangle 423" d="M5,0H116.6a5,5,0,0,1,5,5V111.563a0,0,0,0,1,0,0H0a0,0,0,0,1,0,0V5A5,5,0,0,1,5,0Z" transform="translate(-11844.34 -22495.104)" fill="#c3c3c3"/>
        <rect id="Rectangle_424" data-name="Rectangle 424" width="94.524" height="14.875" rx="7" transform="translate(-11831.696 -22402.135)" fill="#999"/>
        <g id="Group_397" data-name="Group 397" transform="translate(-11712.696 -22621.912)">
          <g id="Rectangle_104" data-name="Rectangle 104" transform="translate(0 0)" fill="#fff" stroke="#e1e1e1" stroke-width="1">
            <rect width="300.476" height="317.756" rx="10" stroke="none"/>
            <rect x="0.5" y="0.5" width="299.476" height="316.756" rx="9.5" fill="none"/>
          </g>
        </g>
        <g id="Group_398" data-name="Group 398" transform="translate(-11710.837 -22621.541)">
          <path id="Rectangle_104-2" data-name="Rectangle 104" d="M10,0H290.476a10,10,0,0,1,10,10V28.808a0,0,0,0,1,0,0H0a0,0,0,0,1,0,0V10A10,10,0,0,1,10,0Z" transform="translate(0 0)" fill="#e1e1e1"/>
        </g>
        <text id="Duration" transform="translate(-11698.565 -22547.373)" font-size="5" font-family="SegoeUI-Semibold, Segoe UI" font-weight="600"><tspan x="0" y="0">Duration</tspan></text>
        <text id="Amount" transform="translate(-11619.355 -22547.373)" font-size="5" font-family="SegoeUI-Semibold, Segoe UI" font-weight="600"><tspan x="0" y="0">Amount</tspan></text>
        <g id="Rectangle_426" data-name="Rectangle 426" transform="translate(-11483.249 -22616.705)" fill="#fda726" stroke="#fda726" stroke-width="1">
          <rect width="63.591" height="18.222" rx="9.111" stroke="none"/>
          <rect x="0.5" y="0.5" width="62.591" height="17.222" rx="8.611" fill="none"/>
        </g>
        <line id="Line_66" data-name="Line 66" x2="278.907" transform="translate(-11699.866 -22524.668)" fill="none" stroke="#c3c3c3" stroke-width="1" opacity="0.3"/>
        <g id="Rectangle_427" data-name="Rectangle 427" transform="translate(-11698.565 -22472.418)" fill="#fff" stroke="#c3c3c3" stroke-width="1">
          <rect width="279.205" height="43.881" rx="10" stroke="none"/>
          <rect x="0.5" y="0.5" width="278.205" height="42.881" rx="9.5" fill="none"/>
        </g>
        <line id="Line_67" data-name="Line 67" x2="278.907" transform="translate(-11699.866 -22420.17)" fill="none" stroke="#c3c3c3" stroke-width="1" opacity="0.3"/>
        <g id="Group_401" data-name="Group 401" transform="translate(-11710.837 -22347.021)">
          <path id="Rectangle_104-3" data-name="Rectangle 104" d="M0,0H300.476a0,0,0,0,1,0,0V32.865a10,10,0,0,1-10,10H10a10,10,0,0,1-10-10V0A0,0,0,0,1,0,0Z" fill="#f7f8fa"/>
        </g>
        <rect id="Rectangle_428" data-name="Rectangle 428" width="63.591" height="18.222" rx="9.111" transform="translate(-11484.364 -22334.822)" fill="#c3c3c3"/>
        <path id="Rectangle_429" data-name="Rectangle 429" d="M0,0H121.6a0,0,0,0,1,0,0V15.081a5,5,0,0,1-5,5H5a5,5,0,0,1-5-5V0A0,0,0,0,1,0,0Z" transform="translate(-11844.34 -22363.459)" fill="#999"/>
        <rect id="Rectangle_430" data-name="Rectangle 430" width="473.77" height="30.866" rx="10" transform="translate(-11870 -22671)" fill="#c3c3c3"/>
        <rect id="Rectangle_432" data-name="Rectangle 432" width="80.325" height="5.578" transform="translate(-11700.797 -22610.014)" fill="#999"/>
        <rect id="Rectangle_433" data-name="Rectangle 433" width="280.395" height="5.206" transform="translate(-11700.797 -22585.84)" fill="#c3c3c3"/>
        <rect id="Rectangle_434" data-name="Rectangle 434" width="280.395" height="5.206" transform="translate(-11700.797 -22575.057)" fill="#c3c3c3"/>
        <rect id="Rectangle_435" data-name="Rectangle 435" width="35.328" height="7.438" transform="translate(-11700.797 -22551.629)" fill="#c3c3c3"/>
        <rect id="Rectangle_436" data-name="Rectangle 436" width="35.328" height="7.438" transform="translate(-11700.797 -22538.984)" fill="#c3c3c3"/>
        <rect id="Rectangle_437" data-name="Rectangle 437" width="35.328" height="7.438" transform="translate(-11625.306 -22551.256)" fill="#c3c3c3"/>
        <rect id="Rectangle_438" data-name="Rectangle 438" width="35.328" height="7.438" transform="translate(-11625.306 -22538.613)" fill="#c3c3c3"/>
        <rect id="Rectangle_439" data-name="Rectangle 439" width="280.395" height="5.206" transform="translate(-11700.797 -22515.184)" fill="#c3c3c3"/>
        <rect id="Rectangle_440" data-name="Rectangle 440" width="35.328" height="7.438" transform="translate(-11698.193 -22496.963)" fill="#c3c3c3"/>
        <rect id="Rectangle_441" data-name="Rectangle 441" width="35.328" height="7.438" transform="translate(-11698.193 -22482.459)" fill="#c3c3c3"/>
        <rect id="Rectangle_442" data-name="Rectangle 442" width="35.328" height="7.438" transform="translate(-11698.193 -22410.688)" fill="#c3c3c3"/>
        <rect id="Rectangle_443" data-name="Rectangle 443" width="40.163" height="2.975" transform="translate(-11802.69 -22612.988)" fill="#707070"/>
        <rect id="Rectangle_444" data-name="Rectangle 444" width="40.163" height="2.975" transform="translate(-11802.69 -22607.41)" fill="#707070"/>
        <rect id="Rectangle_445" data-name="Rectangle 445" width="13.016" height="5.206" transform="translate(-11838.391 -22585.84)" fill="#c3c3c3"/>
        <rect id="Rectangle_446" data-name="Rectangle 446" width="13.016" height="5.206" transform="translate(-11838.391 -22573.941)" fill="#c3c3c3"/>
        <rect id="Rectangle_447" data-name="Rectangle 447" width="13.016" height="5.206" transform="translate(-11838.391 -22562.041)" fill="#c3c3c3"/>
        <rect id="Rectangle_448" data-name="Rectangle 448" width="13.016" height="5.206" transform="translate(-11838.391 -22550.141)" fill="#c3c3c3"/>
        <rect id="Rectangle_449" data-name="Rectangle 449" width="13.016" height="5.206" transform="translate(-11838.391 -22536.752)" fill="#c3c3c3"/>
        <rect id="Rectangle_450" data-name="Rectangle 450" width="13.016" height="5.206" transform="translate(-11838.391 -22524.854)" fill="#c3c3c3"/>
        <rect id="Rectangle_451" data-name="Rectangle 451" width="13.016" height="5.206" transform="translate(-11818.309 -22585.84)" fill="#c3c3c3"/>
        <rect id="Rectangle_452" data-name="Rectangle 452" width="13.016" height="5.206" transform="translate(-11818.309 -22573.941)" fill="#c3c3c3"/>
        <rect id="Rectangle_453" data-name="Rectangle 453" width="13.016" height="5.206" transform="translate(-11818.309 -22562.041)" fill="#c3c3c3"/>
        <rect id="Rectangle_454" data-name="Rectangle 454" width="13.016" height="5.206" transform="translate(-11818.309 -22550.141)" fill="#c3c3c3"/>
        <rect id="Rectangle_455" data-name="Rectangle 455" width="13.016" height="5.206" transform="translate(-11818.309 -22536.752)" fill="#c3c3c3"/>
        <rect id="Rectangle_456" data-name="Rectangle 456" width="13.016" height="5.206" transform="translate(-11818.309 -22524.854)" fill="#c3c3c3"/>
        <rect id="Rectangle_457" data-name="Rectangle 457" width="13.016" height="5.206" transform="translate(-11798.229 -22585.84)" fill="#c3c3c3"/>
        <rect id="Rectangle_458" data-name="Rectangle 458" width="13.016" height="5.206" transform="translate(-11798.229 -22573.941)" fill="#c3c3c3"/>
        <rect id="Rectangle_459" data-name="Rectangle 459" width="13.016" height="5.206" transform="translate(-11798.229 -22562.041)" fill="#c3c3c3"/>
        <rect id="Rectangle_460" data-name="Rectangle 460" width="13.016" height="5.206" transform="translate(-11798.229 -22550.141)" fill="#c3c3c3"/>
        <rect id="Rectangle_461" data-name="Rectangle 461" width="13.016" height="5.206" transform="translate(-11798.229 -22536.752)" fill="#c3c3c3"/>
        <rect id="Rectangle_462" data-name="Rectangle 462" width="13.016" height="5.206" transform="translate(-11798.229 -22524.854)" fill="#c3c3c3"/>
        <rect id="Rectangle_463" data-name="Rectangle 463" width="13.016" height="5.206" transform="translate(-11780.378 -22585.84)" fill="#c3c3c3"/>
        <rect id="Rectangle_464" data-name="Rectangle 464" width="13.016" height="5.206" transform="translate(-11780.378 -22573.941)" fill="#c3c3c3"/>
        <rect id="Rectangle_465" data-name="Rectangle 465" width="13.016" height="5.206" transform="translate(-11780.378 -22562.041)" fill="#c3c3c3"/>
        <rect id="Rectangle_466" data-name="Rectangle 466" width="13.016" height="5.206" transform="translate(-11780.378 -22550.141)" fill="#c3c3c3"/>
        <rect id="Rectangle_467" data-name="Rectangle 467" width="13.016" height="5.206" transform="translate(-11780.378 -22536.752)" fill="#c3c3c3"/>
        <rect id="Rectangle_468" data-name="Rectangle 468" width="13.016" height="5.206" transform="translate(-11780.378 -22524.854)" fill="#c3c3c3"/>
        <rect id="Rectangle_469" data-name="Rectangle 469" width="13.016" height="5.206" transform="translate(-11762.528 -22585.84)" fill="#c3c3c3"/>
        <rect id="Rectangle_470" data-name="Rectangle 470" width="13.016" height="5.206" transform="translate(-11762.528 -22573.941)" fill="#c3c3c3"/>
        <rect id="Rectangle_471" data-name="Rectangle 471" width="13.016" height="5.206" transform="translate(-11762.528 -22562.041)" fill="#c3c3c3"/>
        <rect id="Rectangle_472" data-name="Rectangle 472" width="13.016" height="5.206" transform="translate(-11762.528 -22550.141)" fill="#c3c3c3"/>
        <rect id="Rectangle_473" data-name="Rectangle 473" width="13.016" height="5.206" transform="translate(-11762.528 -22536.752)" fill="#c3c3c3"/>
        <rect id="Rectangle_474" data-name="Rectangle 474" width="13.016" height="5.206" transform="translate(-11762.528 -22524.854)" fill="#c3c3c3"/>
        <rect id="Rectangle_475" data-name="Rectangle 475" width="13.016" height="5.206" transform="translate(-11743.563 -22585.84)" fill="#c3c3c3"/>
        <rect id="Rectangle_476" data-name="Rectangle 476" width="13.016" height="5.206" transform="translate(-11743.563 -22573.941)" fill="#c3c3c3"/>
        <rect id="Rectangle_477" data-name="Rectangle 477" width="13.016" height="5.206" transform="translate(-11743.563 -22562.041)" fill="#c3c3c3"/>
        <rect id="Rectangle_478" data-name="Rectangle 478" width="13.016" height="5.206" transform="translate(-11743.563 -22550.141)" fill="#c3c3c3"/>
        <rect id="Rectangle_479" data-name="Rectangle 479" width="13.016" height="5.206" transform="translate(-11743.563 -22536.752)" fill="#c3c3c3"/>
        <rect id="Rectangle_480" data-name="Rectangle 480" width="13.016" height="5.206" transform="translate(-11743.563 -22524.854)" fill="#c3c3c3"/>
        <rect id="Rectangle_481" data-name="Rectangle 481" width="92.969" height="5.578" transform="translate(-11829.093 -22480.227)" fill="#999"/>
        <rect id="Rectangle_482" data-name="Rectangle 482" width="55.781" height="5.578" transform="translate(-11812.359 -22463.863)" fill="#999"/>
        <rect id="Rectangle_483" data-name="Rectangle 483" width="55.781" height="5.578" transform="translate(-11812.359 -22451.594)" fill="#999"/>
        <rect id="Rectangle_484" data-name="Rectangle 484" width="55.781" height="5.578" transform="translate(-11812.359 -22439.322)" fill="#999"/>
        <rect id="Rectangle_485" data-name="Rectangle 485" width="55.781" height="5.578" transform="translate(-11812.359 -22427.049)" fill="#999"/>
        <rect id="Rectangle_486" data-name="Rectangle 486" width="92.969" height="5.578" transform="translate(-11829.093 -22373.5)" fill="#e1e1e1"/>
        <rect id="Rectangle_487" data-name="Rectangle 487" width="92.969" height="5.578" transform="translate(-11829.093 -22357.137)" fill="#e1e1e1"/>
      </g>
    </g>
  </g>
</svg>
