<svg xmlns="http://www.w3.org/2000/svg" xmlns:xlink="http://www.w3.org/1999/xlink" width="486.934" height="549.464" viewBox="0 0 486.934 549.464">
  <defs>
    <clipPath id="clip-path">
      <rect width="486.934" height="549.464" fill="none"/>
    </clipPath>
  </defs>
  <g id="Component_4_1" data-name="Component 4 – 1" clip-path="url(#clip-path)">
    <g id="Path_222" data-name="Path 222" transform="translate(474.934 11.996) rotate(90)" fill="#fff">
      <path d="M 363.4014282226563 468.9342956542969 L 162.0717163085938 468.9342956542969 C 137.9197845458984 468.9342956542969 115.2995758056641 456.0079956054688 103.0383605957031 435.1998596191406 L 3.486429452896118 266.2523498535156 C -9.156713485717773 244.7960815429688 -9.156713485717773 218.1382141113281 3.486429452896118 196.6818695068359 L 103.0384292602539 27.73443412780762 C 115.2995758056641 6.926290512084961 137.9197845458984 -5.999995231628418 162.0717163085938 -5.999995231628418 L 363.4014282226563 -5.999995231628418 C 387.5534362792969 -5.999995231628418 410.1736450195313 6.926290512084961 422.4347839355469 27.73443412780762 L 521.9866943359375 196.6818695068359 C 534.6299438476563 218.1382141113281 534.6299438476563 244.7960815429688 521.9866943359375 266.2523498535156 L 422.4347839355469 435.1998596191406 C 410.1736450195313 456.0079956054688 387.5534362792969 468.9342956542969 363.4014282226563 468.9342956542969 Z" stroke="none"/>
      <path d="M 162.0717163085938 0 C 139.9337158203125 0 119.4464111328125 11.70736694335938 108.2077331542969 30.78036499023438 L 8.65570068359375 199.7278442382813 C -2.88525390625 219.3136901855469 -2.88525390625 243.6205291748047 8.65570068359375 263.2063598632813 L 108.2076416015625 432.1538391113281 C 119.4464111328125 451.2268371582031 139.9337158203125 462.9342956542969 162.0716552734375 462.9342956542969 L 363.4014282226563 462.9342956542969 C 385.5394287109375 462.9342956542969 406.0267333984375 451.2268371582031 417.2655029296875 432.1538391113281 L 516.8174438476563 263.2063598632813 C 528.3583984375 243.62060546875 528.3583984375 219.3136901855469 516.8174438476563 199.7278442382813 L 417.2655029296875 30.78036499023438 C 406.0267333984375 11.70736694335938 385.5394287109375 0 363.4014282226563 0 L 162.0717163085938 0 M 162.0717163085938 -12 L 363.4014282226563 -12 C 389.6682739257813 -12 414.2692565917969 2.058135986328125 427.6041259765625 24.68838500976563 L 527.156005859375 193.6358337402344 C 540.9063720703125 216.9710693359375 540.9063720703125 245.9633026123047 527.156005859375 269.2984619140625 L 427.6041259765625 438.245849609375 C 414.2692565917969 460.8761596679688 389.6681823730469 474.9342956542969 363.4014282226563 474.9342956542969 L 162.0716552734375 474.9342956542969 C 135.8048706054688 474.9342956542969 111.2038879394531 460.8761596679688 97.8690185546875 438.245849609375 L -1.682861328125 269.2984008789063 C -15.43316650390625 245.9632263183594 -15.43316650390625 216.9709930419922 -1.682861328125 193.6357727050781 L 97.86911010742188 24.68838500976563 C 111.2038879394531 2.058135986328125 135.8048706054688 -12 162.0717163085938 -12 Z" stroke="none" fill="#fff"/>
    </g>
    <g id="Group_382" data-name="Group 382" transform="translate(48.098 137.302)">
      <g id="Rectangle_104" data-name="Rectangle 104" fill="#f5f5f5" stroke="#e1e1e1" stroke-width="1">
        <rect width="404.365" height="273.948" rx="10" stroke="none"/>
        <rect x="0.5" y="0.5" width="403.365" height="272.948" rx="9.5" fill="none"/>
      </g>
    </g>
    <g id="Group_383" data-name="Group 383" transform="translate(48.098 356.5)">
      <path id="Rectangle_104-2" data-name="Rectangle 104" d="M0,0H404.365a0,0,0,0,1,0,0V44.75a10,10,0,0,1-10,10H10a10,10,0,0,1-10-10V0A0,0,0,0,1,0,0Z" fill="#c3c3c3"/>
    </g>
    <g id="Rectangle_397" data-name="Rectangle 397" transform="translate(63.613 371.513)" fill="#fff" stroke="#c3c3c3" stroke-width="1">
      <rect width="304.175" height="24.522" rx="10" stroke="none"/>
      <rect x="0.5" y="0.5" width="303.175" height="23.522" rx="9.5" fill="none"/>
    </g>
    <g id="Group_384" data-name="Group 384" transform="translate(48.098 137.802)">
      <path id="Rectangle_104-3" data-name="Rectangle 104" d="M10,0H394.365a10,10,0,0,1,10,10V38.768a0,0,0,0,1,0,0H0a0,0,0,0,1,0,0V10A10,10,0,0,1,10,0Z" transform="translate(0 0)" fill="#e0e0e0"/>
    </g>
    <rect id="Rectangle_398" data-name="Rectangle 398" width="67.461" height="24.522" rx="10" transform="translate(372.391 371.513)" fill="#fda726"/>
    <path id="paperclip" d="M9.535,6.916l-.83-.83L4.97,2.351a1.761,1.761,0,0,0-2.49,2.49L6.214,8.577a.391.391,0,0,0,.553-.553L3.033,4.288A.978.978,0,1,1,4.416,2.9L8.152,6.639l.83.83a1.761,1.761,0,1,1-2.491,2.49L5.8,9.267,1.926,5.394,1.65,5.118a2.543,2.543,0,0,1,3.6-3.6L9.4,5.671a.391.391,0,1,0,.553-.553L5.8.968a3.326,3.326,0,0,0-4.7,4.7l4.15,4.15.693.692a2.543,2.543,0,0,0,3.6-3.6Zm0,0" transform="translate(349.636 378.289)" fill="#c3c3c3"/>
    <line id="Line_64" data-name="Line 64" x2="404.365" transform="translate(48.349 357.751)" fill="none" stroke="#c3c3c3" stroke-width="1" opacity="0.3"/>
    <g id="Group_385" data-name="Group 385" transform="translate(65.114 189.349)">
      <rect id="Rectangle_283" data-name="Rectangle 283" width="170.654" height="49.545" rx="10" transform="translate(0 0)" fill="#fff"/>
    </g>
    <path id="Rectangle_399" data-name="Rectangle 399" d="M10,0H160.654a10,10,0,0,1,10,10v8.526a10,10,0,0,1-10,10H0a0,0,0,0,1,0,0V10A10,10,0,0,1,10,0Z" transform="translate(65.114 243.898)" fill="#fff"/>
    <path id="Path_223" data-name="Path 223" d="M0,0,2,3.326,4.829,5.684H0Z" transform="translate(60.681 272.357) rotate(-90)" fill="#fff"/>
    <g id="Group_386" data-name="Group 386" transform="translate(269.299 293.443)">
      <path id="Rectangle_283-2" data-name="Rectangle 283" d="M10,0H160.654a10,10,0,0,1,10,10V49.545a0,0,0,0,1,0,0H10a10,10,0,0,1-10-10V10A10,10,0,0,1,10,0Z" transform="translate(0 0)" fill="#fff"/>
    </g>
    <path id="Path_224" data-name="Path 224" d="M0,5.684,2,2.358,4.829,0H0Z" transform="translate(439.023 342.921) rotate(-90)" fill="#fff"/>
    <g id="happiness" transform="translate(334.376 378.287)">
      <path id="Path_202" data-name="Path 202" d="M5.612,0a5.612,5.612,0,1,0,5.612,5.612A5.618,5.618,0,0,0,5.612,0Zm0,10.616a5,5,0,1,1,5-5A4.989,4.989,0,0,1,5.612,10.616Z" transform="translate(0 0)" fill="#c3c3c3"/>
      <circle id="Ellipse_100" data-name="Ellipse 100" cx="0.607" cy="0.607" r="0.607" transform="translate(3.172 3.754)" fill="#c3c3c3"/>
      <circle id="Ellipse_101" data-name="Ellipse 101" cx="0.607" cy="0.607" r="0.607" transform="translate(6.926 3.754)" fill="#c3c3c3"/>
      <path id="Path_203" data-name="Path 203" d="M73.6,181.124a3.522,3.522,0,0,0,2.942-1.6l-.51-.329a2.882,2.882,0,0,1-4.844,0l-.51.329a3.523,3.523,0,0,0,2.528,1.574A3.434,3.434,0,0,0,73.6,181.124Z" transform="translate(-67.997 -172.404)" fill="#c3c3c3"/>
    </g>
    <rect id="Rectangle_400" data-name="Rectangle 400" width="39.536" height="5.505" transform="translate(87.635 154.318)" fill="#999"/>
    <rect id="Rectangle_401" data-name="Rectangle 401" width="152.638" height="5.505" transform="translate(73.622 198.857)" fill="#c3c3c3"/>
    <rect id="Rectangle_402" data-name="Rectangle 402" width="100.09" height="5.505" transform="translate(73.622 208.867)" fill="#c3c3c3"/>
    <rect id="Rectangle_403" data-name="Rectangle 403" width="35.032" height="5.505" transform="translate(191.228 226.882)" fill="#e1e1e1"/>
    <rect id="Rectangle_404" data-name="Rectangle 404" width="100.09" height="5.505" transform="translate(73.622 252.906)" fill="#c3c3c3"/>
    <rect id="Rectangle_405" data-name="Rectangle 405" width="35.032" height="5.505" transform="translate(191.228 261.916)" fill="#e1e1e1"/>
    <rect id="Rectangle_406" data-name="Rectangle 406" width="100.09" height="5.505" transform="translate(328.852 306.955)" fill="#c3c3c3"/>
    <rect id="Rectangle_407" data-name="Rectangle 407" width="35.032" height="5.505" transform="translate(278.807 327.974)" fill="#e1e1e1"/>
    <rect id="Rectangle_408" data-name="Rectangle 408" width="150.136" height="5.505" transform="translate(278.807 318.466)" fill="#c3c3c3"/>
    <rect id="Rectangle_409" data-name="Rectangle 409" width="35.032" height="5.505" transform="translate(73.622 381.023)" fill="#e1e1e1"/>
    <rect id="Rectangle_410" data-name="Rectangle 410" width="35.032" height="5.505" transform="translate(388.406 381.023)" fill="#fff" opacity="0.59"/>
    <g id="user" transform="translate(395.406 192.466)">
      <circle id="Ellipse_110" data-name="Ellipse 110" cx="41.854" cy="41.854" r="41.854" transform="translate(1.443 1.443)" fill="#c3c3c3"/>
      <g id="Group_387" data-name="Group 387" transform="translate(5.773 1.443)">
        <ellipse id="Ellipse_111" data-name="Ellipse 111" cx="37.524" cy="41.854" rx="37.524" ry="41.854" fill="#e1e1e1"/>
        <path id="Path_225" data-name="Path 225" d="M120.858,74.027a18.315,18.315,0,0,0-18.215-16.418H94.061a1.97,1.97,0,0,1-1.97-1.97v-.931a2,2,0,0,1,1.335-1.858c8.377-3.149,14.112-16.891,12.947-26.6A20.267,20.267,0,0,0,88.648,8.67a20.944,20.944,0,0,0-2.215-.128l-.069,0a20.205,20.205,0,0,0-20.25,20.2c0,8.694,5.495,21.294,13.2,24.143a1.943,1.943,0,0,1,1.234,1.835v.917a1.97,1.97,0,0,1-1.97,1.97H69.994A18.315,18.315,0,0,0,51.779,74.027a41.849,41.849,0,0,0,69.079,0Z" transform="translate(-48.795 -8.539)" fill="#e1e1e1"/>
      </g>
      <g id="Group_388" data-name="Group 388" transform="translate(26.045 50.513)">
        <rect id="Rectangle_411" data-name="Rectangle 411" width="8.659" height="8.659" transform="translate(12.922 5.773)" fill="#c3c3c3"/>
        <path id="Path_226" data-name="Path 226" d="M221.532,403.792a41.368,41.368,0,0,0,11.7-.005L230.248,384h-5.773Z" transform="translate(-210.11 -369.568)" fill="#c3c3c3"/>
        <path id="Path_227" data-name="Path 227" d="M166.92,305.594l-5.773-6.927h-7.008a.141.141,0,0,0-.131.193l5.7,14.239,7.216-4.811Z" transform="translate(-153.998 -298.667)" fill="#c3c3c3"/>
        <path id="Path_228" data-name="Path 228" d="M294.382,298.667h-7.008l-5.773,6.927v2.694l7.216,4.811,5.7-14.239a.141.141,0,0,0-.131-.193Z" transform="translate(-260.02 -298.667)" fill="#c3c3c3"/>
      </g>
      <path id="Path_229" data-name="Path 229" d="M12.863,50.387c0-23.115,16.8-41.854,37.524-41.854a41.854,41.854,0,0,0,0,83.707C29.663,92.24,12.863,73.5,12.863,50.387Z" transform="translate(-7.09 -7.09)" fill="#fff"/>
      <g id="Group_389" data-name="Group 389">
        <path id="Path_230" data-name="Path 230" d="M120.91,413.8a1.442,1.442,0,0,1-1.443-1.443V402.51a1.443,1.443,0,0,1,2.886,0v9.849a1.443,1.443,0,0,1-1.443,1.443Z" transform="translate(-99.262 -333.235)" fill="#999"/>
        <path id="Path_231" data-name="Path 231" d="M376.91,413.8a1.442,1.442,0,0,1-1.443-1.443V402.51a1.443,1.443,0,0,1,2.886,0v9.845a1.443,1.443,0,0,1-1.443,1.443Z" transform="translate(-311.965 -333.235)" fill="#999"/>
        <path id="Path_232" data-name="Path 232" d="M43.3,86.594a43.3,43.3,0,1,1,43.3-43.3A43.3,43.3,0,0,1,43.3,86.594Zm0-83.707A40.41,40.41,0,1,0,83.707,43.3,40.41,40.41,0,0,0,43.3,2.887Z" fill="#999"/>
        <path id="Path_233" data-name="Path 233" d="M79.231,86.6A43.313,43.313,0,0,1,43.5,67.755a1.45,1.45,0,0,1-.245-.964A19.691,19.691,0,0,1,62.907,49.077h8.58a.528.528,0,0,0,.527-.527v-.916a.508.508,0,0,0-.293-.482c-8.092-2.992-14.139-15.929-14.139-25.5A21.646,21.646,0,0,1,79.231.009h.048a22.955,22.955,0,0,1,2.444.138,21.729,21.729,0,0,1,19,18.839c1.215,10.138-4.58,24.632-13.874,28.126a.576.576,0,0,0-.4.507v.93a.528.528,0,0,0,.527.527h8.58a19.692,19.692,0,0,1,19.651,17.713,1.45,1.45,0,0,1-.245.964A43.313,43.313,0,0,1,79.231,86.6ZM46.189,66.564a40.4,40.4,0,0,0,66.084,0,16.812,16.812,0,0,0-16.718-14.6h-8.58A3.418,3.418,0,0,1,83.56,48.55v-.93a3.426,3.426,0,0,1,2.271-3.209C93.576,41.5,98.914,28.186,97.853,19.33A18.813,18.813,0,0,0,81.4,3.017a19.2,19.2,0,0,0-2.063-.12h-.048a18.76,18.76,0,0,0-18.82,18.759c0,8.442,5.353,20.238,12.255,22.79A3.394,3.394,0,0,1,74.9,47.634v.916a3.418,3.418,0,0,1-3.413,3.414h-8.58A16.812,16.812,0,0,0,46.189,66.564Z" transform="translate(-35.934 -0.007)" fill="#999"/>
        <path id="Path_234" data-name="Path 234" d="M231.97,335.813H223.31a1.442,1.442,0,0,1-1.443-1.443V325.71a1.442,1.442,0,0,1,1.443-1.443h8.659a1.442,1.442,0,0,1,1.443,1.443v8.659a1.442,1.442,0,0,1-1.443,1.443Zm-7.216-2.886h5.773v-5.773h-5.773Z" transform="translate(-184.343 -269.424)" fill="#999"/>
        <path id="Path_235" data-name="Path 235" d="M152.69,307.451a1.442,1.442,0,0,1-1.34-.908l-5.7-14.239a1.723,1.723,0,0,1,.159-1.476,1.586,1.586,0,0,1,1.312-.7h7.007a1.446,1.446,0,0,1,1.109.519l5.773,6.927a1.446,1.446,0,0,1,.334.925V301.2a1.444,1.444,0,0,1-.643,1.2l-7.216,4.81a1.447,1.447,0,0,1-.8.242Zm-3.64-14.432,4.32,10.8,5.094-3.4v-1.4l-5.006-6.007Z" transform="translate(-120.94 -241.063)" fill="#999"/>
        <path id="Path_236" data-name="Path 236" d="M281.726,307.451a1.445,1.445,0,0,1-.8-.242l-7.216-4.81a1.444,1.444,0,0,1-.643-1.2V298.5a1.446,1.446,0,0,1,.334-.925l5.773-6.927a1.446,1.446,0,0,1,1.109-.519h7.007a1.584,1.584,0,0,1,1.471,2.172l-5.7,14.239a1.442,1.442,0,0,1-1.34.908Zm-5.773-7.026,5.094,3.4,4.32-10.8H280.96l-5.006,6.007v1.4Z" transform="translate(-226.884 -241.063)" fill="#999"/>
        <path id="Path_237" data-name="Path 237" d="M220.271,398.558a43.71,43.71,0,0,1-6.029-.427,1.444,1.444,0,0,1-1.228-1.642l2.943-19.792a1.445,1.445,0,0,1,1.428-1.23h5.773a1.444,1.444,0,0,1,1.428,1.228l2.986,19.787a1.444,1.444,0,0,1-1.228,1.645A43.846,43.846,0,0,1,220.271,398.558Zm-4.185-3.109a39.45,39.45,0,0,0,8.409,0l-2.579-17.092h-3.287Z" transform="translate(-176.975 -311.964)" fill="#999"/>
      </g>
      <path id="Path_238" data-name="Path 238" d="M162.9,18.657a25.778,25.778,0,0,1,13.644,9.124c-.023-.319-.034-.646-.071-.957A20.267,20.267,0,0,0,158.746,9.247a20.985,20.985,0,0,0-2.215-.128l-.069,0a20.2,20.2,0,0,0-19.927,16.707l.006.008c.258.364,8.8-3.52,12.9-1.7A10.1,10.1,0,0,0,162.9,18.657Z" transform="translate(-113.442 -7.576)" fill="#c3c3c3"/>
      <path id="Path_239" data-name="Path 239" d="M169.457,22.133a1.446,1.446,0,0,1-1.159-.582,24.085,24.085,0,0,0-11.711-8.245,11.548,11.548,0,0,1-14.816,5.053c-2.476-1.1-7.6.524-10.063,1.305-1.889.6-2.753.871-3.432-.087a1.464,1.464,0,0,1-.251-1.091A21.585,21.585,0,0,1,149.332.583h.047a23.267,23.267,0,0,1,2.441.138,21.729,21.729,0,0,1,19,18.839c.028.234.044.478.058.722l.02.3a1.445,1.445,0,0,1-1.439,1.552ZM149.392,3.471a18.72,18.72,0,0,0-17.987,13.261c3.111-.975,8.266-2.461,11.536-1.012a8.66,8.66,0,0,0,11.532-4.693,1.443,1.443,0,0,1,1.721-.853,27.874,27.874,0,0,1,10.835,5.8A18.851,18.851,0,0,0,151.5,3.59a19.56,19.56,0,0,0-2.063-.12h-.043Z" transform="translate(-106.356 -0.484)" fill="#999"/>
    </g>
    <g id="user1" transform="translate(10.133 276.404)">
      <path id="Path_251" data-name="Path 251" d="M39.306,0A39.306,39.306,0,1,1,0,39.306,39.306,39.306,0,0,1,39.306,0Z" transform="translate(1.355 1.355)" fill="#c3c3c3"/>
      <path id="Path_250" data-name="Path 250" d="M35.24,0C54.7,0,70.48,17.6,70.48,39.306S54.7,78.613,35.24,78.613,0,61.015,0,39.306,15.778,0,35.24,0Z" transform="translate(5.421 1.355)" fill="#e1e1e1"/>
      <path id="Path_240" data-name="Path 240" d="M12.6,47.839c0-21.708,15.778-39.306,35.24-39.306a39.306,39.306,0,1,0,0,78.613C28.377,87.146,12.6,69.548,12.6,47.839Z" transform="translate(-7.178 -7.178)" fill="#fff"/>
      <path id="Path_241" data-name="Path 241" d="M116.654,70.042A17.2,17.2,0,0,0,99.547,54.623H91.488a1.85,1.85,0,0,1-1.85-1.85V51.9a1.879,1.879,0,0,1,1.254-1.745c7.867-2.958,13.253-15.863,12.159-24.984A19.033,19.033,0,0,0,86.4,8.662a19.669,19.669,0,0,0-2.081-.12l-.065,0A18.975,18.975,0,0,0,65.241,27.515c0,8.165,5.16,20,12.395,22.674a1.824,1.824,0,0,1,1.159,1.723v.861a1.85,1.85,0,0,1-1.85,1.85H68.885A17.2,17.2,0,0,0,51.779,70.042a39.3,39.3,0,0,0,64.875,0Z" transform="translate(-43.555 -7.184)" fill="#e1e1e1"/>
      <path id="Path_242" data-name="Path 242" d="M99.547,298.666H93.7l-9.488,10.843L73.373,298.666H68.885a17.2,17.2,0,0,0-17.106,15.419,39.3,39.3,0,0,0,64.875,0A17.2,17.2,0,0,0,99.547,298.666Z" transform="translate(-43.555 -251.228)" fill="#c3c3c3"/>
      <g id="Group_390" data-name="Group 390">
        <path id="Path_243" data-name="Path 243" d="M120.822,413.027a1.355,1.355,0,0,1-1.355-1.355v-9.25a1.355,1.355,0,1,1,2.711,0v9.249a1.355,1.355,0,0,1-1.355,1.356Z" transform="translate(-100.492 -337.364)" fill="#999"/>
        <path id="Path_244" data-name="Path 244" d="M376.822,413.023a1.355,1.355,0,0,1-1.355-1.355v-9.246a1.355,1.355,0,0,1,2.711,0v9.245a1.355,1.355,0,0,1-1.355,1.356Z" transform="translate(-315.83 -337.364)" fill="#999"/>
        <path id="Path_245" data-name="Path 245" d="M191.4,303.687a1.35,1.35,0,0,1-.958-.4L179.6,292.447a1.355,1.355,0,0,1,.958-2.314h3.571a1.355,1.355,0,0,1,0,2.711h-.3l7.571,7.571,7.571-7.571h-.3a1.355,1.355,0,0,1,0-2.711h3.571a1.355,1.355,0,0,1,.958,2.314L192.357,303.29a1.352,1.352,0,0,1-.958.4Z" transform="translate(-150.737 -244.05)" fill="#999"/>
        <path id="Path_246" data-name="Path 246" d="M40.662,81.323A40.662,40.662,0,1,1,81.323,40.662,40.662,40.662,0,0,1,40.662,81.323Zm0-78.612A37.951,37.951,0,1,0,78.612,40.662,37.951,37.951,0,0,0,40.662,2.711Z" fill="#999"/>
        <path id="Path_247" data-name="Path 247" d="M77.041,81.331a40.677,40.677,0,0,1-33.555-17.7,1.362,1.362,0,0,1-.23-.905A18.493,18.493,0,0,1,61.711,46.091h8.058a.5.5,0,0,0,.5-.5v-.86a.477.477,0,0,0-.275-.453c-7.6-2.81-13.279-14.96-13.279-23.944A20.329,20.329,0,0,1,77.041.009h.045a21.558,21.558,0,0,1,2.3.13A20.406,20.406,0,0,1,97.222,17.831c1.141,9.521-4.3,23.133-13.03,26.414a.541.541,0,0,0-.375.477V45.6a.5.5,0,0,0,.5.5h8.058a18.493,18.493,0,0,1,18.455,16.635,1.362,1.362,0,0,1-.23.905A40.677,40.677,0,0,1,77.041,81.331ZM46.01,62.513a37.945,37.945,0,0,0,62.062,0A15.789,15.789,0,0,0,92.371,48.8H84.313A3.21,3.21,0,0,1,81.107,45.6v-.874a3.217,3.217,0,0,1,2.132-3.014c7.273-2.735,12.287-15.237,11.29-23.554A17.668,17.668,0,0,0,79.078,2.834a18.036,18.036,0,0,0-1.938-.112h-.045A17.618,17.618,0,0,0,59.421,20.338c0,7.929,5.027,19.006,11.509,21.4a3.187,3.187,0,0,1,2.045,2.994v.86A3.21,3.21,0,0,1,69.769,48.8H61.711A15.789,15.789,0,0,0,46.01,62.513Z" transform="translate(-36.379 -0.008)" fill="#999"/>
      </g>
      <path id="Path_248" data-name="Path 248" d="M161.294,18.076a24.209,24.209,0,0,1,12.813,8.569c-.022-.3-.032-.606-.067-.9A19.034,19.034,0,0,0,157.394,9.239a19.708,19.708,0,0,0-2.081-.12l-.065,0a18.966,18.966,0,0,0-18.714,15.69l.005.008c.242.342,8.265-3.305,12.118-1.6a9.488,9.488,0,0,0,12.637-5.141Z" transform="translate(-114.848 -7.67)" fill="#c3c3c3"/>
      <path id="Path_249" data-name="Path 249" d="M166.934,20.821a1.358,1.358,0,0,1-1.088-.547,22.619,22.619,0,0,0-11-7.743,10.845,10.845,0,0,1-13.914,4.745c-2.326-1.03-7.137.492-9.451,1.226-1.774.561-2.584.818-3.223-.082a1.375,1.375,0,0,1-.236-1.024A20.271,20.271,0,0,1,148.034.583h.044a21.851,21.851,0,0,1,2.293.13,20.407,20.407,0,0,1,17.842,17.693c.026.22.041.449.054.678l.019.281a1.357,1.357,0,0,1-1.351,1.457ZM148.091,3.295A17.581,17.581,0,0,0,131.2,15.749c2.921-.916,7.764-2.311,10.834-.95a8.133,8.133,0,0,0,10.83-4.408,1.357,1.357,0,0,1,1.616-.8,26.177,26.177,0,0,1,10.176,5.447A17.7,17.7,0,0,0,150.069,3.407a18.37,18.37,0,0,0-1.938-.112h-.041Z" transform="translate(-107.674 -0.49)" fill="#999"/>
    </g>
    <g id="user1-2" data-name="user1" transform="translate(65.18 147.812)">
      <path id="Path_251-2" data-name="Path 251" d="M9.095,0A9.095,9.095,0,1,1,0,9.095,9.095,9.095,0,0,1,9.095,0Z" transform="translate(0.314 0.314)" fill="#c3c3c3"/>
      <path id="Path_250-2" data-name="Path 250" d="M8.154,0c4.5,0,8.154,4.072,8.154,9.095S12.657,18.19,8.154,18.19,0,14.118,0,9.095,3.651,0,8.154,0Z" transform="translate(1.254 0.314)" fill="#e1e1e1"/>
      <path id="Path_240-2" data-name="Path 240" d="M9.474,17.628c0-5.023,3.651-9.095,8.154-9.095a9.095,9.095,0,1,0,0,18.19C13.125,26.723,9.474,22.651,9.474,17.628Z" transform="translate(-8.219 -8.219)" fill="#fff"/>
      <path id="Path_241-2" data-name="Path 241" d="M66.79,22.771A3.98,3.98,0,0,0,62.832,19.2H60.967a.428.428,0,0,1-.428-.428v-.2a.435.435,0,0,1,.29-.4c1.82-.684,3.067-3.67,2.813-5.781a4.4,4.4,0,0,0-3.852-3.819,4.551,4.551,0,0,0-.481-.028h-.015a4.391,4.391,0,0,0-4.4,4.39c0,1.889,1.194,4.627,2.868,5.246a.422.422,0,0,1,.268.4v.2a.428.428,0,0,1-.428.428H55.737a3.98,3.98,0,0,0-3.958,3.568,9.094,9.094,0,0,0,15.011,0Z" transform="translate(-49.876 -8.227)" fill="#e1e1e1"/>
      <path id="Path_242-2" data-name="Path 242" d="M62.832,298.666H61.48l-2.2,2.509-2.509-2.509H55.737a3.98,3.98,0,0,0-3.958,3.568,9.094,9.094,0,0,0,15.011,0A3.98,3.98,0,0,0,62.832,298.666Z" transform="translate(-49.876 -287.69)" fill="#c3c3c3"/>
      <g id="Group_390-2" data-name="Group 390">
        <path id="Path_243-2" data-name="Path 243" d="M119.781,403.834a.313.313,0,0,1-.314-.314v-2.14a.314.314,0,0,1,.627,0v2.14a.313.313,0,0,1-.314.314Z" transform="translate(-115.076 -386.327)" fill="#999"/>
        <path id="Path_244-2" data-name="Path 244" d="M375.781,403.833a.313.313,0,0,1-.314-.314v-2.139a.314.314,0,0,1,.627,0v2.139a.314.314,0,0,1-.314.314Z" transform="translate(-361.668 -386.327)" fill="#999"/>
        <path id="Path_245-2" data-name="Path 245" d="M182.023,293.269a.312.312,0,0,1-.222-.092l-2.509-2.509a.314.314,0,0,1,.222-.535h.826a.314.314,0,1,1,0,.627h-.069l1.752,1.752,1.752-1.752h-.069a.314.314,0,0,1,0-.627h.826a.314.314,0,0,1,.222.535l-2.509,2.509a.313.313,0,0,1-.222.092Z" transform="translate(-172.614 -279.47)" fill="#999"/>
        <path id="Path_246-2" data-name="Path 246" d="M9.408,18.817a9.408,9.408,0,1,1,9.408-9.408A9.408,9.408,0,0,1,9.408,18.817Zm0-18.19A8.781,8.781,0,1,0,18.19,9.408,8.781,8.781,0,0,0,9.408.627Z" fill="#999"/>
        <path id="Path_247-2" data-name="Path 247" d="M51.067,18.825a9.412,9.412,0,0,1-7.764-4.1.315.315,0,0,1-.053-.209,4.279,4.279,0,0,1,4.27-3.849h1.865a.115.115,0,0,0,.115-.115v-.2a.11.11,0,0,0-.064-.1c-1.758-.65-3.072-3.461-3.072-5.54a4.7,4.7,0,0,1,4.7-4.7h.01a4.988,4.988,0,0,1,.531.03,4.722,4.722,0,0,1,4.128,4.094c.264,2.2-1,5.353-3.015,6.112a.125.125,0,0,0-.087.11v.2a.115.115,0,0,0,.115.115h1.865a4.279,4.279,0,0,1,4.27,3.849.315.315,0,0,1-.053.209A9.412,9.412,0,0,1,51.067,18.825Zm-7.18-4.354a8.78,8.78,0,0,0,14.36,0A3.653,3.653,0,0,0,54.614,11.3H52.75a.743.743,0,0,1-.742-.742v-.2a.744.744,0,0,1,.493-.7c1.683-.633,2.843-3.526,2.612-5.45A4.088,4.088,0,0,0,51.539.663,4.173,4.173,0,0,0,51.09.637h-.01a4.077,4.077,0,0,0-4.09,4.076c0,1.835,1.163,4.4,2.663,4.952a.737.737,0,0,1,.473.693v.2a.743.743,0,0,1-.742.742H47.52A3.653,3.653,0,0,0,43.887,14.471Z" transform="translate(-41.659 -0.009)" fill="#999"/>
      </g>
      <path id="Path_248-2" data-name="Path 248" d="M142.263,11.191a5.6,5.6,0,0,1,2.965,1.983c-.005-.069-.007-.14-.015-.208a4.4,4.4,0,0,0-3.852-3.819,4.56,4.56,0,0,0-.481-.028h-.015a4.388,4.388,0,0,0-4.33,3.63v0c.056.079,1.912-.765,2.8-.37a2.2,2.2,0,0,0,2.924-1.19Z" transform="translate(-131.516 -8.783)" fill="#c3c3c3"/>
      <path id="Path_249-2" data-name="Path 249" d="M137.013,5.266a.314.314,0,0,1-.252-.126,5.234,5.234,0,0,0-2.545-1.792A2.509,2.509,0,0,1,131,4.445a4.078,4.078,0,0,0-2.187.284c-.41.13-.6.189-.746-.019a.318.318,0,0,1-.055-.237,4.69,4.69,0,0,1,4.63-3.89h.01a5.056,5.056,0,0,1,.53.03,4.722,4.722,0,0,1,4.128,4.094c.006.051.009.1.013.157l0,.065a.314.314,0,0,1-.313.337Zm-4.36-4.055a4.068,4.068,0,0,0-3.909,2.882,4.1,4.1,0,0,1,2.507-.22,1.882,1.882,0,0,0,2.506-1.02.314.314,0,0,1,.374-.185,6.057,6.057,0,0,1,2.355,1.26,4.1,4.1,0,0,0-3.375-2.691,4.25,4.25,0,0,0-.448-.026h-.009Z" transform="translate(-123.301 -0.561)" fill="#999"/>
    </g>
    <path id="question" d="M70.7,0H40.959C21.117,0,8.724,21.3,18,38.451a26.086,26.086,0,0,0,8.09,50.884h3.654v3.654a3.782,3.782,0,0,0,5.47,3.381l14.07-7.035h6.542c19.857,0,32.215-21.3,22.961-38.457A26.082,26.082,0,0,0,70.7,0ZM55.827,81.774H48.393a3.781,3.781,0,0,0-1.69.4l-9.4,4.7V85.554a3.78,3.78,0,0,0-3.78-3.78H26.091a18.523,18.523,0,0,1-3.083-36.788,25.988,25.988,0,0,0,17.951,7.178H47.5L61.571,59.2a3.782,3.782,0,0,0,5.47-3.381V52.164h3.622C79.687,64.221,71.153,81.774,55.827,81.774ZM70.7,44.6H63.261a3.78,3.78,0,0,0-3.78,3.78V49.7l-9.4-4.7a3.779,3.779,0,0,0-1.69-.4H40.959a18.522,18.522,0,1,1,0-37.044H70.7a18.522,18.522,0,1,1,0,37.044Zm3.78-18.522a3.78,3.78,0,0,1-3.78,3.78H40.959a3.78,3.78,0,1,1,0-7.56H70.7A3.78,3.78,0,0,1,74.475,26.082ZM44.739,63.189a3.78,3.78,0,1,1-3.78-3.78A3.78,3.78,0,0,1,44.739,63.189Zm14.868,0a3.78,3.78,0,1,1-3.78-3.78A3.78,3.78,0,0,1,59.607,63.189Zm-29.736,0a3.78,3.78,0,1,1-3.78-3.78A3.78,3.78,0,0,1,29.871,63.189Z" transform="translate(289.991 130.095)" fill="#fda726"/>
  </g>
</svg>
