<svg xmlns="http://www.w3.org/2000/svg" xmlns:xlink="http://www.w3.org/1999/xlink" width="486.934" height="549.464" viewBox="0 0 486.934 549.464">
  <defs>
    <clipPath id="clip-path">
      <path id="Path_253" data-name="Path 253" d="M363.4,0a62.52,62.52,0,0,1,53.864,30.78l99.552,168.947a62.519,62.519,0,0,1,0,63.479L417.266,432.154a62.52,62.52,0,0,1-53.864,30.78H162.072a62.52,62.52,0,0,1-53.864-30.78L8.656,263.206a62.52,62.52,0,0,1,0-63.479L108.208,30.78A62.52,62.52,0,0,1,162.072,0Z" transform="translate(-12323.065 -24336.854) rotate(90)" fill="#fff" stroke="#fff" stroke-width="12"/>
    </clipPath>
    <filter id="Rectangle_51" x="207.5" y="82.75" width="272.822" height="417.599" filterUnits="userSpaceOnUse">
      <feOffset dy="3" input="SourceAlpha"/>
      <feGaussianBlur stdDeviation="7.5" result="blur"/>
      <feFlood flood-opacity="0.161"/>
      <feComposite operator="in" in2="blur"/>
      <feComposite in="SourceGraphic"/>
    </filter>
  </defs>
  <g id="Group_472" data-name="Group 472" transform="translate(-144 -2056.151)">
    <g id="Group_393" data-name="Group 393" transform="translate(12940 26407)">
      <g id="Path_254" data-name="Path 254" transform="translate(-12321.065 -24338.854) rotate(90)" fill="#fff">
        <path d="M 363.4014282226563 468.9342956542969 L 162.0717163085938 468.9342956542969 C 137.9197845458984 468.9342956542969 115.2995758056641 456.0079956054688 103.0383605957031 435.1998596191406 L 3.486429452896118 266.2523498535156 C -9.156713485717773 244.7960815429688 -9.156713485717773 218.1382141113281 3.486429452896118 196.6818695068359 L 103.0384292602539 27.73443412780762 C 115.2995758056641 6.926290512084961 137.9197845458984 -5.999995231628418 162.0717163085938 -5.999995231628418 L 363.4014282226563 -5.999995231628418 C 387.5534362792969 -5.999995231628418 410.1736450195313 6.926290512084961 422.4347839355469 27.73443412780762 L 521.9866943359375 196.6818695068359 C 534.6299438476563 218.1382141113281 534.6299438476563 244.7960815429688 521.9866943359375 266.2523498535156 L 422.4347839355469 435.1998596191406 C 410.1736450195313 456.0079956054688 387.5534362792969 468.9342956542969 363.4014282226563 468.9342956542969 Z" stroke="none"/>
        <path d="M 162.0717163085938 0 C 139.9337158203125 0 119.4464111328125 11.70736694335938 108.2077331542969 30.78036499023438 L 8.65570068359375 199.7278442382813 C -2.88525390625 219.3136901855469 -2.88525390625 243.6205291748047 8.65570068359375 263.2063598632813 L 108.2076416015625 432.1538391113281 C 119.4464111328125 451.2268371582031 139.9337158203125 462.9342956542969 162.0716552734375 462.9342956542969 L 363.4014282226563 462.9342956542969 C 385.5394287109375 462.9342956542969 406.0267333984375 451.2268371582031 417.2655029296875 432.1538391113281 L 516.8174438476563 263.2063598632813 C 528.3583984375 243.62060546875 528.3583984375 219.3136901855469 516.8174438476563 199.7278442382813 L 417.2655029296875 30.78036499023438 C 406.0267333984375 11.70736694335938 385.5394287109375 0 363.4014282226563 0 L 162.0717163085938 0 M 162.0717163085938 -12 L 363.4014282226563 -12 C 389.6682739257813 -12 414.2692565917969 2.058135986328125 427.6041259765625 24.68838500976563 L 527.156005859375 193.6358337402344 C 540.9063720703125 216.9710693359375 540.9063720703125 245.9633026123047 527.156005859375 269.2984619140625 L 427.6041259765625 438.245849609375 C 414.2692565917969 460.8761596679688 389.6681823730469 474.9342956542969 363.4014282226563 474.9342956542969 L 162.0716552734375 474.9342956542969 C 135.8048706054688 474.9342956542969 111.2038879394531 460.8761596679688 97.8690185546875 438.245849609375 L -1.682861328125 269.2984008789063 C -15.43316650390625 245.9632263183594 -15.43316650390625 216.9709930419922 -1.682861328125 193.6357727050781 L 97.86911010742188 24.68838500976563 C 111.2038879394531 2.058135986328125 135.8048706054688 -12 162.0717163085938 -12 Z" stroke="none" fill="#fff"/>
      </g>
      <g id="Mask_Group_27" data-name="Mask Group 27" clip-path="url(#clip-path)">
        <g id="Group_391" data-name="Group 391" transform="translate(-12909 -24638.354)" opacity="0.3">
          <rect id="Rectangle_51-2" data-name="Rectangle 51" width="362.8" height="593.353" rx="5" transform="translate(94 169)" fill="#fcfcfc"/>
          <rect id="Rectangle_54" data-name="Rectangle 54" width="133.417" height="40.961" rx="7" transform="translate(123.258 490.839)" fill="#c3c3c3"/>
          <rect id="Rectangle_55" data-name="Rectangle 55" width="73.73" height="40.961" rx="7" transform="translate(268.378 490.839)" fill="#c3c3c3"/>
          <rect id="Rectangle_162" data-name="Rectangle 162" width="73.73" height="40.961" rx="7" transform="translate(353.811 490.839)" fill="#c3c3c3"/>
          <rect id="Rectangle_163" data-name="Rectangle 163" width="73.73" height="40.961" rx="7" transform="translate(123.258 543.503)" fill="#c3c3c3"/>
          <rect id="Rectangle_164" data-name="Rectangle 164" width="73.73" height="40.961" rx="7" transform="translate(208.692 543.503)" fill="#c3c3c3"/>
          <rect id="Rectangle_165" data-name="Rectangle 165" width="133.417" height="40.961" rx="7" transform="translate(294.125 543.503)" fill="#c3c3c3"/>
          <g id="Group_236" data-name="Group 236" transform="translate(216.884 387.883)">
            <path id="star" d="M37.4,14.894a.671.671,0,0,0-.541-.456L24.739,12.676,19.318,1.692a.669.669,0,0,0-1.2,0L12.7,12.676.574,14.438A.67.67,0,0,0,.2,15.581l8.772,8.55L6.9,36.2a.672.672,0,0,0,.266.655.664.664,0,0,0,.706.051l10.843-5.7,10.842,5.7a.67.67,0,0,0,.972-.706L28.461,24.131l8.772-8.551A.671.671,0,0,0,37.4,14.894Z" transform="translate(0 6.322)" fill="#fca726"/>
            <text id="_4.8" data-name="4.8" transform="translate(56.025 38)" fill="#707070" font-size="35" font-family="SegoeUI, Segoe UI"><tspan x="0" y="0">4.8</tspan></text>
          </g>
          <line id="Line_45" data-name="Line 45" x2="304.284" transform="translate(123.843 695.06)" fill="none" stroke="#e1e1e1" stroke-width="1" opacity="0.3"/>
          <g id="user" transform="translate(217.359 207.173)">
            <circle id="Ellipse_110" data-name="Ellipse 110" cx="48.982" cy="48.982" r="48.982" transform="translate(1.689 1.689)" fill="#c3c3c3"/>
            <g id="Group_387" data-name="Group 387" transform="translate(6.756 1.689)">
              <ellipse id="Ellipse_111" data-name="Ellipse 111" cx="43.915" cy="48.982" rx="43.915" ry="48.982" fill="#e1e1e1"/>
              <path id="Path_225" data-name="Path 225" d="M132.624,85.181a21.434,21.434,0,0,0-21.318-19.214H101.263a2.305,2.305,0,0,1-2.305-2.305v-1.09A2.342,2.342,0,0,1,100.52,60.4c9.8-3.686,16.515-19.768,15.152-31.135A23.719,23.719,0,0,0,94.927,8.692a24.512,24.512,0,0,0-2.593-.149l-.081,0a23.647,23.647,0,0,0-23.7,23.645c0,10.175,6.43,24.921,15.446,28.255a2.273,2.273,0,0,1,1.444,2.147v1.073a2.305,2.305,0,0,1-2.305,2.305H73.1A21.434,21.434,0,0,0,51.779,85.181a48.977,48.977,0,0,0,80.845,0Z" transform="translate(-48.286 -8.539)" fill="#e1e1e1"/>
            </g>
            <g id="Group_388" data-name="Group 388" transform="translate(30.481 59.116)">
              <rect id="Rectangle_411" data-name="Rectangle 411" width="10.134" height="10.134" transform="translate(15.123 6.756)" fill="#c3c3c3"/>
              <path id="Path_226" data-name="Path 226" d="M221.532,407.163a48.413,48.413,0,0,0,13.7-.006L231.733,384h-6.756Z" transform="translate(-208.165 -367.11)" fill="#c3c3c3"/>
              <path id="Path_227" data-name="Path 227" d="M169.121,306.774l-6.756-8.107h-8.2a.165.165,0,0,0-.153.226l6.665,16.664,8.445-5.63Z" transform="translate(-153.998 -298.667)" fill="#c3c3c3"/>
              <path id="Path_228" data-name="Path 228" d="M296.558,298.667h-8.2l-6.756,8.107v3.153l8.445,5.63,6.666-16.664a.165.165,0,0,0-.153-.226Z" transform="translate(-256.344 -298.667)" fill="#c3c3c3"/>
            </g>
            <path id="Path_229" data-name="Path 229" d="M13.6,57.515c0-27.052,19.662-48.982,43.915-48.982a48.982,48.982,0,0,0,0,97.964C33.262,106.5,13.6,84.567,13.6,57.515Z" transform="translate(-6.844 -6.844)" fill="#fff"/>
            <g id="Group_389" data-name="Group 389">
              <path id="Path_230" data-name="Path 230" d="M121.156,415.971a1.688,1.688,0,0,1-1.689-1.689V402.756a1.689,1.689,0,0,1,3.378,0v11.526a1.688,1.688,0,0,1-1.689,1.689Z" transform="translate(-95.82 -321.682)" fill="#999"/>
              <path id="Path_231" data-name="Path 231" d="M377.156,415.966a1.688,1.688,0,0,1-1.689-1.689V402.756a1.689,1.689,0,0,1,3.378,0v11.521a1.688,1.688,0,0,1-1.689,1.689Z" transform="translate(-301.149 -321.682)" fill="#999"/>
              <path id="Path_232" data-name="Path 232" d="M50.671,101.342a50.671,50.671,0,1,1,50.671-50.671A50.671,50.671,0,0,1,50.671,101.342Zm0-97.964A47.293,47.293,0,1,0,97.964,50.671,47.293,47.293,0,0,0,50.671,3.378Z" fill="#999"/>
              <path id="Path_233" data-name="Path 233" d="M85.359,101.349A50.69,50.69,0,0,1,43.544,79.293a1.7,1.7,0,0,1-.287-1.128,23.045,23.045,0,0,1,23-20.73H76.3a.618.618,0,0,0,.617-.617V55.745a.594.594,0,0,0-.343-.564c-9.47-3.5-16.547-18.642-16.547-29.839A25.333,25.333,0,0,1,85.359.009h.056a26.865,26.865,0,0,1,2.86.162,25.43,25.43,0,0,1,22.233,22.048c1.422,11.865-5.361,28.828-16.237,32.916a.674.674,0,0,0-.467.594v1.089a.618.618,0,0,0,.617.617h10.042a23.045,23.045,0,0,1,23,20.73,1.7,1.7,0,0,1-.287,1.128A50.69,50.69,0,0,1,85.359,101.349ZM46.689,77.9a47.286,47.286,0,0,0,77.34,0,19.675,19.675,0,0,0-19.566-17.087H94.421a4,4,0,0,1-3.995-3.995V55.729a4.009,4.009,0,0,1,2.657-3.756c9.064-3.408,15.312-18.988,14.07-29.352A22.017,22.017,0,0,0,87.9,3.529a22.475,22.475,0,0,0-2.415-.14h-.056A21.955,21.955,0,0,0,63.4,25.343c0,9.88,6.265,23.684,14.342,26.672a3.972,3.972,0,0,1,2.548,3.731v1.072A4,4,0,0,1,76.3,60.813H66.255A19.676,19.676,0,0,0,46.689,77.9Z" transform="translate(-34.688 -0.007)" fill="#999"/>
              <path id="Path_234" data-name="Path 234" d="M233.69,337.779H223.556a1.688,1.688,0,0,1-1.689-1.689V325.956a1.688,1.688,0,0,1,1.689-1.689H233.69a1.688,1.688,0,0,1,1.689,1.689V336.09a1.688,1.688,0,0,1-1.689,1.689Zm-8.445-3.378H232v-6.756h-6.756Z" transform="translate(-177.952 -260.083)" fill="#999"/>
              <path id="Path_235" data-name="Path 235" d="M153.905,310.4a1.688,1.688,0,0,1-1.569-1.062l-6.665-16.664a2.016,2.016,0,0,1,.186-1.727,1.856,1.856,0,0,1,1.536-.815h8.2a1.693,1.693,0,0,1,1.3.607l6.756,8.107a1.692,1.692,0,0,1,.391,1.082v3.154a1.69,1.69,0,0,1-.752,1.405l-8.445,5.63a1.694,1.694,0,0,1-.937.284Zm-4.261-16.89,5.056,12.641,5.961-3.974V300.54l-5.859-7.03Z" transform="translate(-116.747 -232.705)" fill="#999"/>
              <path id="Path_236" data-name="Path 236" d="M283.2,310.4a1.691,1.691,0,0,1-.937-.284l-8.445-5.63a1.69,1.69,0,0,1-.752-1.405v-3.154a1.692,1.692,0,0,1,.391-1.082l6.756-8.107a1.693,1.693,0,0,1,1.3-.607h8.2a1.854,1.854,0,0,1,1.722,2.542l-6.665,16.664A1.687,1.687,0,0,1,283.2,310.4Zm-6.756-8.222,5.961,3.974,5.056-12.641H282.3l-5.859,7.03v1.638Z" transform="translate(-219.018 -232.705)" fill="#999"/>
              <path id="Path_237" data-name="Path 237" d="M221.51,402.491a51.159,51.159,0,0,1-7.056-.5,1.69,1.69,0,0,1-1.437-1.922l3.444-23.163a1.691,1.691,0,0,1,1.671-1.44h6.756a1.689,1.689,0,0,1,1.671,1.437l3.5,23.157a1.69,1.69,0,0,1-1.437,1.925A51.308,51.308,0,0,1,221.51,402.491Zm-4.9-3.639a46.169,46.169,0,0,0,9.841,0l-3.019-20h-3.846Z" transform="translate(-170.839 -301.148)" fill="#999"/>
            </g>
            <path id="Path_238" data-name="Path 238" d="M167.389,20.282A30.168,30.168,0,0,1,183.357,30.96c-.027-.374-.04-.756-.083-1.12A23.719,23.719,0,0,0,162.529,9.269a24.558,24.558,0,0,0-2.593-.149l-.081,0a23.635,23.635,0,0,0-23.321,19.553l.007.01c.3.426,10.3-4.119,15.1-1.992a11.824,11.824,0,0,0,15.748-6.407Z" transform="translate(-109.509 -7.313)" fill="#c3c3c3"/>
            <path id="Path_239" data-name="Path 239" d="M176.517,25.8a1.693,1.693,0,0,1-1.356-.681,28.187,28.187,0,0,0-13.705-9.649,13.515,13.515,0,0,1-17.339,5.913c-2.9-1.283-8.894.614-11.777,1.527-2.21.7-3.221,1.019-4.016-.1a1.714,1.714,0,0,1-.294-1.277A25.261,25.261,0,0,1,152.964.583h.054a27.231,27.231,0,0,1,2.857.162A25.43,25.43,0,0,1,178.11,22.793c.033.274.051.559.068.845l.023.35a1.691,1.691,0,0,1-1.684,1.816ZM153.035,3.963a21.909,21.909,0,0,0-21.05,15.52c3.64-1.141,9.674-2.88,13.5-1.184a10.135,10.135,0,0,0,13.5-5.493,1.689,1.689,0,0,1,2.014-1,32.621,32.621,0,0,1,12.681,6.788A22.061,22.061,0,0,0,155.5,4.1a22.892,22.892,0,0,0-2.415-.14h-.051Z" transform="translate(-102.669 -0.467)" fill="#999"/>
          </g>
          <rect id="Rectangle_406" data-name="Rectangle 406" width="117.138" height="13.465" transform="translate(213.373 335.309)" fill="#c3c3c3"/>
          <rect id="Rectangle_412" data-name="Rectangle 412" width="94.902" height="13.465" transform="translate(223.906 359.886)" fill="#c3c3c3"/>
          <rect id="Rectangle_413" data-name="Rectangle 413" width="290.346" height="13.465" transform="translate(129.11 455.852)" fill="#c3c3c3"/>
          <rect id="Rectangle_414" data-name="Rectangle 414" width="290.346" height="13.465" transform="translate(129.11 605.654)" fill="#c3c3c3"/>
          <rect id="Rectangle_415" data-name="Rectangle 415" width="200.231" height="13.465" transform="translate(174.752 634.912)" fill="#c3c3c3"/>
          <rect id="Rectangle_416" data-name="Rectangle 416" width="290.346" height="13.465" transform="translate(129.11 685.235)" fill="#c3c3c3"/>
          <rect id="Rectangle_417" data-name="Rectangle 417" width="200.231" height="13.465" transform="translate(129.11 714.493)" fill="#c3c3c3"/>
        </g>
        <g id="Group_392" data-name="Group 392" transform="translate(-12660 -24417.6)">
          <g transform="matrix(1, 0, 0, 1, -136, 66.75)" filter="url(#Rectangle_51)">
            <rect id="Rectangle_51-3" data-name="Rectangle 51" width="227.822" height="372.599" rx="5" transform="translate(230 102.25)" fill="#fcfcfc"/>
          </g>
          <rect id="Rectangle_54-2" data-name="Rectangle 54" width="83.78" height="25.722" rx="7" transform="translate(112.373 371.1)" fill="#c3c3c3"/>
          <rect id="Rectangle_55-2" data-name="Rectangle 55" width="46.299" height="25.722" rx="7" transform="translate(203.502 371.1)" fill="#c3c3c3"/>
          <rect id="Rectangle_162-2" data-name="Rectangle 162" width="46.299" height="25.722" rx="7" transform="translate(257.15 371.1)" fill="#c3c3c3"/>
          <rect id="Rectangle_163-2" data-name="Rectangle 163" width="46.299" height="25.722" rx="7" transform="translate(112.373 404.171)" fill="#c3c3c3"/>
          <rect id="Rectangle_164-2" data-name="Rectangle 164" width="46.299" height="25.722" rx="7" transform="translate(166.021 404.171)" fill="#c3c3c3"/>
          <rect id="Rectangle_165-2" data-name="Rectangle 165" width="83.78" height="25.722" rx="7" transform="translate(219.67 404.171)" fill="#c3c3c3"/>
          <g id="Group_236-2" data-name="Group 236" transform="translate(171.166 306.449)">
            <path id="star-2" data-name="star" d="M23.487,9.843a.422.422,0,0,0-.34-.287L15.535,8.45l-3.4-6.9a.42.42,0,0,0-.754,0l-3.4,6.9L.361,9.557a.421.421,0,0,0-.234.717l5.508,5.369-1.3,7.582a.422.422,0,0,0,.167.412.417.417,0,0,0,.443.032l6.809-3.579,6.808,3.579a.421.421,0,0,0,.611-.443l-1.3-7.581,5.508-5.37A.421.421,0,0,0,23.487,9.843Z" transform="translate(0 3.48)" fill="#fca726"/>
            <text id="_4.8-2" data-name="4.8" transform="translate(35.181 23)" fill="#707070" font-size="21" font-family="SegoeUI, Segoe UI"><tspan x="0" y="0">4.8</tspan></text>
          </g>
          <line id="Line_45-2" data-name="Line 45" x2="191.077" transform="translate(112.74 499.342)" fill="none" stroke="#e1e1e1" stroke-width="1" opacity="0.3"/>
          <g id="user-2" data-name="user" transform="translate(171.464 192.971)">
            <circle id="Ellipse_110-2" data-name="Ellipse 110" cx="30.759" cy="30.759" r="30.759" transform="translate(1.061 1.061)" fill="#c3c3c3"/>
            <g id="Group_387-2" data-name="Group 387" transform="translate(4.243 1.061)">
              <ellipse id="Ellipse_111-2" data-name="Ellipse 111" cx="27.577" cy="30.759" rx="27.577" ry="30.759" fill="#e1e1e1"/>
              <path id="Path_225-2" data-name="Path 225" d="M102.546,56.667A13.46,13.46,0,0,0,89.159,44.6H82.853a1.447,1.447,0,0,1-1.448-1.448V42.47a1.47,1.47,0,0,1,.981-1.365C88.542,38.79,92.757,28.691,91.9,21.553A14.894,14.894,0,0,0,78.874,8.636a15.392,15.392,0,0,0-1.628-.094H77.2A14.849,14.849,0,0,0,62.313,23.389c0,6.389,4.038,15.649,9.7,17.743a1.428,1.428,0,0,1,.907,1.348v.674A1.447,1.447,0,0,1,71.472,44.6H65.165A13.46,13.46,0,0,0,51.779,56.667a30.755,30.755,0,0,0,50.767,0Z" transform="translate(-49.586 -8.54)" fill="#e1e1e1"/>
            </g>
            <g id="Group_388-2" data-name="Group 388" transform="translate(19.141 37.122)">
              <rect id="Rectangle_411-2" data-name="Rectangle 411" width="6.364" height="6.364" transform="translate(9.496 4.243)" fill="#c3c3c3"/>
              <path id="Path_226-2" data-name="Path 226" d="M221.532,398.545a30.4,30.4,0,0,0,8.6,0L227.938,384h-4.243Z" transform="translate(-213.138 -373.394)" fill="#c3c3c3"/>
              <path id="Path_227-2" data-name="Path 227" d="M163.494,303.758l-4.243-5.091H154.1a.1.1,0,0,0-.1.142l4.186,10.464,5.3-3.535Z" transform="translate(-153.998 -298.667)" fill="#c3c3c3"/>
              <path id="Path_228-2" data-name="Path 228" d="M290.994,298.667h-5.15l-4.243,5.091v1.98l5.3,3.535,4.186-10.464a.1.1,0,0,0-.1-.142Z" transform="translate(-265.741 -298.667)" fill="#c3c3c3"/>
            </g>
            <path id="Path_229-2" data-name="Path 229" d="M11.715,39.292c0-16.988,12.347-30.759,27.577-30.759a30.759,30.759,0,0,0,0,61.517C24.062,70.05,11.715,56.279,11.715,39.292Z" transform="translate(-7.472 -7.472)" fill="#fff"/>
            <g id="Group_389-2" data-name="Group 389">
              <path id="Path_230-2" data-name="Path 230" d="M120.528,410.426a1.06,1.06,0,0,1-1.061-1.06v-7.238a1.061,1.061,0,0,1,2.121,0v7.238a1.06,1.06,0,0,1-1.061,1.061Z" transform="translate(-104.618 -351.217)" fill="#999"/>
              <path id="Path_231-2" data-name="Path 231" d="M376.528,410.423a1.06,1.06,0,0,1-1.061-1.061v-7.235a1.061,1.061,0,0,1,2.121,0v7.235a1.06,1.06,0,0,1-1.061,1.061Z" transform="translate(-328.799 -351.217)" fill="#999"/>
              <path id="Path_232-2" data-name="Path 232" d="M31.819,63.638A31.819,31.819,0,1,1,63.638,31.819,31.819,31.819,0,0,1,31.819,63.638Zm0-61.517a29.7,29.7,0,1,0,29.7,29.7A29.7,29.7,0,0,0,31.819,2.121Z" fill="#999"/>
              <path id="Path_233-2" data-name="Path 233" d="M69.692,63.646A31.831,31.831,0,0,1,43.434,49.8a1.066,1.066,0,0,1-.18-.708A14.471,14.471,0,0,1,57.7,36.07H64a.388.388,0,0,0,.387-.387v-.673a.373.373,0,0,0-.215-.354c-5.947-2.2-10.391-11.706-10.391-18.737A15.908,15.908,0,0,1,69.692.009h.035a16.87,16.87,0,0,1,1.8.1A15.969,15.969,0,0,1,85.484,13.956c.893,7.45-3.366,18.1-10.2,20.67A.423.423,0,0,0,75,35v.684a.388.388,0,0,0,.387.387h6.306A14.472,14.472,0,0,1,96.13,49.087a1.066,1.066,0,0,1-.18.708A31.831,31.831,0,0,1,69.692,63.646ZM45.409,48.921a29.693,29.693,0,0,0,48.566,0,12.355,12.355,0,0,0-12.286-10.73H75.383a2.512,2.512,0,0,1-2.509-2.509V35a2.518,2.518,0,0,1,1.669-2.358c5.692-2.14,9.615-11.924,8.835-18.432A13.826,13.826,0,0,0,71.286,2.219a14.114,14.114,0,0,0-1.516-.088h-.035A13.787,13.787,0,0,0,55.9,15.917c0,6.2,3.934,14.873,9.006,16.749a2.494,2.494,0,0,1,1.6,2.343v.673A2.512,2.512,0,0,1,64,38.191H57.7A12.355,12.355,0,0,0,45.409,48.921Z" transform="translate(-37.873 -0.008)" fill="#999"/>
              <path id="Path_234-2" data-name="Path 234" d="M229.291,332.752h-6.364a1.06,1.06,0,0,1-1.061-1.061v-6.364a1.06,1.06,0,0,1,1.061-1.061h6.364a1.06,1.06,0,0,1,1.061,1.061v6.364a1.06,1.06,0,0,1-1.061,1.061Zm-5.3-2.121h4.243v-4.242h-4.243Z" transform="translate(-194.29 -283.963)" fill="#999"/>
              <path id="Path_235-2" data-name="Path 235" d="M150.8,302.86a1.06,1.06,0,0,1-.985-.667l-4.186-10.465a1.266,1.266,0,0,1,.117-1.084,1.166,1.166,0,0,1,.964-.512h5.15a1.063,1.063,0,0,1,.815.381l4.242,5.091a1.063,1.063,0,0,1,.246.68v1.98a1.061,1.061,0,0,1-.472.882l-5.3,3.535a1.064,1.064,0,0,1-.588.178Zm-2.675-10.606,3.175,7.938,3.743-2.5v-1.029l-3.679-4.415Z" transform="translate(-127.466 -254.07)" fill="#999"/>
              <path id="Path_236-2" data-name="Path 236" d="M279.431,302.86a1.062,1.062,0,0,1-.588-.178l-5.3-3.535a1.061,1.061,0,0,1-.472-.882v-1.98a1.063,1.063,0,0,1,.246-.68l4.242-5.091a1.063,1.063,0,0,1,.815-.381h5.15a1.164,1.164,0,0,1,1.081,1.6l-4.186,10.465a1.059,1.059,0,0,1-.985.667Zm-4.243-5.163,3.743,2.5,3.175-7.938h-3.239l-3.679,4.415V297.7Z" transform="translate(-239.126 -254.07)" fill="#999"/>
              <path id="Path_237-2" data-name="Path 237" d="M218.343,392.436a32.122,32.122,0,0,1-4.431-.314,1.061,1.061,0,0,1-.9-1.207l2.163-14.546a1.062,1.062,0,0,1,1.049-.9h4.242a1.061,1.061,0,0,1,1.049.9l2.195,14.541a1.061,1.061,0,0,1-.9,1.209A32.219,32.219,0,0,1,218.343,392.436Zm-3.075-2.285a28.994,28.994,0,0,0,6.18,0l-1.9-12.561h-2.415Z" transform="translate(-186.524 -328.798)" fill="#999"/>
            </g>
            <path id="Path_238-2" data-name="Path 238" d="M155.91,16.128a18.944,18.944,0,0,1,10.027,6.705c-.017-.235-.025-.474-.052-.7A14.9,14.9,0,0,0,152.857,9.213a15.421,15.421,0,0,0-1.628-.094h-.051A14.842,14.842,0,0,0,136.534,21.4l0,.006c.19.268,6.468-2.587,9.483-1.251a7.425,7.425,0,0,0,9.889-4.023Z" transform="translate(-119.564 -7.985)" fill="#c3c3c3"/>
            <path id="Path_239-2" data-name="Path 239" d="M158.468,16.42a1.063,1.063,0,0,1-.851-.428,17.7,17.7,0,0,0-8.606-6.059,8.487,8.487,0,0,1-10.888,3.713c-1.82-.806-5.585.385-7.4.959-1.388.439-2.023.64-2.522-.064a1.076,1.076,0,0,1-.184-.8A15.863,15.863,0,0,1,143.679.583h.034a17.1,17.1,0,0,1,1.794.1A15.969,15.969,0,0,1,159.469,14.53c.021.172.032.351.042.53l.014.22a1.062,1.062,0,0,1-1.057,1.14ZM143.723,2.705A13.758,13.758,0,0,0,130.5,12.451c2.286-.717,6.075-1.808,8.478-.744a6.364,6.364,0,0,0,8.475-3.449,1.061,1.061,0,0,1,1.265-.627,20.485,20.485,0,0,1,7.963,4.262,13.853,13.853,0,0,0-11.413-9.1,14.375,14.375,0,0,0-1.516-.088h-.032Z" transform="translate(-112.095 -0.51)" fill="#999"/>
          </g>
          <rect id="Rectangle_406-2" data-name="Rectangle 406" width="73.557" height="8.455" transform="translate(168.961 273.435)" fill="#c3c3c3"/>
          <rect id="Rectangle_412-2" data-name="Rectangle 412" width="59.594" height="8.455" transform="translate(175.575 288.868)" fill="#c3c3c3"/>
          <rect id="Rectangle_413-2" data-name="Rectangle 413" width="182.324" height="8.455" transform="translate(116.047 349.13)" fill="#c3c3c3"/>
          <rect id="Rectangle_414-2" data-name="Rectangle 414" width="182.324" height="8.455" transform="translate(116.047 443.199)" fill="#c3c3c3"/>
          <rect id="Rectangle_415-2" data-name="Rectangle 415" width="125.736" height="8.455" transform="translate(144.709 461.572)" fill="#c3c3c3"/>
          <rect id="Rectangle_416-2" data-name="Rectangle 416" width="182.324" height="8.455" transform="translate(116.047 493.173)" fill="#c3c3c3"/>
          <rect id="Rectangle_417-2" data-name="Rectangle 417" width="125.736" height="8.455" transform="translate(116.047 511.546)" fill="#c3c3c3"/>
        </g>
      </g>
    </g>
  </g>
</svg>
