<svg xmlns="http://www.w3.org/2000/svg" xmlns:xlink="http://www.w3.org/1999/xlink" width="486.934" height="549.464" viewBox="0 0 486.934 549.464">
  <defs>
    <clipPath id="clip-path">
      <rect width="486.934" height="549.464" fill="none"/>
    </clipPath>
    <clipPath id="clip-path-2">
      <path id="Path_216" data-name="Path 216" d="M363.4,0a62.52,62.52,0,0,1,53.864,30.78l99.552,168.947a62.519,62.519,0,0,1,0,63.479L417.266,432.154a62.52,62.52,0,0,1-53.864,30.78H162.072a62.52,62.52,0,0,1-53.864-30.78L8.656,263.206a62.52,62.52,0,0,1,0-63.479L108.208,30.78A62.52,62.52,0,0,1,162.072,0Z" transform="translate(-12734.065 -22214.854) rotate(90)" fill="#fff" stroke="#fff" stroke-width="12"/>
    </clipPath>
  </defs>
  <g id="Component_8_1" data-name="Component 8 – 1" clip-path="url(#clip-path)">
    <g id="Path_215" data-name="Path 215" transform="translate(474.934 11.996) rotate(90)" fill="#fff">
      <path d="M 363.4014282226563 468.9342956542969 L 162.0717163085938 468.9342956542969 C 137.9197845458984 468.9342956542969 115.2995758056641 456.0079956054688 103.0383605957031 435.1998596191406 L 3.486429452896118 266.2523498535156 C -9.156713485717773 244.7960815429688 -9.156713485717773 218.1382141113281 3.486429452896118 196.6818695068359 L 103.0384292602539 27.73443412780762 C 115.2995758056641 6.926290512084961 137.9197845458984 -5.999995231628418 162.0717163085938 -5.999995231628418 L 363.4014282226563 -5.999995231628418 C 387.5534362792969 -5.999995231628418 410.1736450195313 6.926290512084961 422.4347839355469 27.73443412780762 L 521.9866943359375 196.6818695068359 C 534.6299438476563 218.1382141113281 534.6299438476563 244.7960815429688 521.9866943359375 266.2523498535156 L 422.4347839355469 435.1998596191406 C 410.1736450195313 456.0079956054688 387.5534362792969 468.9342956542969 363.4014282226563 468.9342956542969 Z" stroke="none"/>
      <path d="M 162.0717163085938 0 C 139.9337158203125 0 119.4464111328125 11.70736694335938 108.2077331542969 30.78036499023438 L 8.65570068359375 199.7278442382813 C -2.88525390625 219.3136901855469 -2.88525390625 243.6205291748047 8.65570068359375 263.2063598632813 L 108.2076416015625 432.1538391113281 C 119.4464111328125 451.2268371582031 139.9337158203125 462.9342956542969 162.0716552734375 462.9342956542969 L 363.4014282226563 462.9342956542969 C 385.5394287109375 462.9342956542969 406.0267333984375 451.2268371582031 417.2655029296875 432.1538391113281 L 516.8174438476563 263.2063598632813 C 528.3583984375 243.62060546875 528.3583984375 219.3136901855469 516.8174438476563 199.7278442382813 L 417.2655029296875 30.78036499023438 C 406.0267333984375 11.70736694335938 385.5394287109375 0 363.4014282226563 0 L 162.0717163085938 0 M 162.0717163085938 -12 L 363.4014282226563 -12 C 389.6682739257813 -12 414.2692565917969 2.058135986328125 427.6041259765625 24.68838500976563 L 527.156005859375 193.6358337402344 C 540.9063720703125 216.9710693359375 540.9063720703125 245.9633026123047 527.156005859375 269.2984619140625 L 427.6041259765625 438.245849609375 C 414.2692565917969 460.8761596679688 389.6681823730469 474.9342956542969 363.4014282226563 474.9342956542969 L 162.0716552734375 474.9342956542969 C 135.8048706054688 474.9342956542969 111.2038879394531 460.8761596679688 97.8690185546875 438.245849609375 L -1.682861328125 269.2984008789063 C -15.43316650390625 245.9632263183594 -15.43316650390625 216.9709930419922 -1.682861328125 193.6357727050781 L 97.86911010742188 24.68838500976563 C 111.2038879394531 2.058135986328125 135.8048706054688 -12 162.0717163085938 -12 Z" stroke="none" fill="#fff"/>
    </g>
    <g id="Mask_Group_26" data-name="Mask Group 26" transform="translate(13209 22226.85)" clip-path="url(#clip-path-2)">
      <g id="Group_380" data-name="Group 380" transform="translate(-13301 -22192.371)" opacity="0.89">
        <rect id="Rectangle_166" data-name="Rectangle 166" width="404.789" height="353.439" rx="10" transform="translate(94 64)" fill="#fafafa"/>
        <path id="Rectangle_119" data-name="Rectangle 119" d="M5.559,0H398.665c3.07,0,5.559,2,5.559,4.468v27.9H0V4.468C0,2,2.489,0,5.559,0Z" transform="translate(94.447 64)" fill="#c3c3c3"/>
        <g id="Path_214" data-name="Path 214" transform="translate(112.318 178.377)" fill="#fff">
          <path d="M 363.4613037109375 50.88052749633789 L 4.467887401580811 50.88052749633789 C 2.279978275299072 50.88052749633789 0.5000236630439758 49.10052871704102 0.5000236630439758 46.91262054443359 L 0.5000236630439758 4.467892646789551 C 0.5000236630439758 2.279983282089233 2.279978275299072 0.4999834001064301 4.467887401580811 0.4999834001064301 L 363.4613037109375 0.4999834001064301 C 365.6492004394531 0.4999834001064301 367.4291687011719 2.279983282089233 367.4291687011719 4.467892646789551 L 367.4291687011719 46.91262054443359 C 367.4291687011719 49.10052871704102 365.6492004394531 50.88052749633789 363.4613037109375 50.88052749633789 Z" stroke="none"/>
          <path d="M 4.46783447265625 0.9999847412109375 C 2.5556640625 0.9999847412109375 0.999969482421875 2.5556640625 0.999969482421875 4.467845916748047 L 0.999969482421875 46.91262054443359 C 0.999969482421875 48.82484817504883 2.5556640625 50.38052749633789 4.46783447265625 50.38052749633789 L 363.4612426757813 50.38052749633789 C 365.3734436035156 50.38052749633789 366.9291076660156 48.82484817504883 366.9291076660156 46.91262054443359 L 366.9291076660156 4.467845916748047 C 366.9291076660156 2.5556640625 365.3734436035156 0.9999847412109375 363.4612426757813 0.9999847412109375 L 4.46783447265625 0.9999847412109375 M 4.46783447265625 -1.52587890625e-05 L 363.4612426757813 -1.52587890625e-05 C 365.9288024902344 -1.52587890625e-05 367.9291076660156 2.000347137451172 367.9291076660156 4.467845916748047 L 367.9291076660156 46.91262054443359 C 367.9291076660156 49.38016510009766 365.9288024902344 51.38052749633789 363.4612426757813 51.38052749633789 L 4.46783447265625 51.38052749633789 C 2.000335693359375 51.38052749633789 -3.0517578125e-05 49.38016510009766 -3.0517578125e-05 46.91262054443359 L -3.0517578125e-05 4.467845916748047 C -3.0517578125e-05 2.000347137451172 2.000335693359375 -1.52587890625e-05 4.46783447265625 -1.52587890625e-05 Z" stroke="none" fill="#c3c3c3"/>
        </g>
        <g id="Group_256" data-name="Group 256" transform="translate(391.53 380.356)">
          <rect id="Rectangle_202" data-name="Rectangle 202" width="88.94" height="21.893" rx="3" fill="#fda726"/>
        </g>
        <g id="Rectangle_233" data-name="Rectangle 233" transform="translate(112.318 133.699)" fill="#fff" stroke="#c3c3c3" stroke-width="1">
          <rect width="113.484" height="24.573" rx="3" stroke="none"/>
          <rect x="0.5" y="0.5" width="112.484" height="23.573" rx="2.5" fill="none"/>
        </g>
        <line id="Line_43" data-name="Line 43" x2="367.259" transform="translate(112.988 242.045)" fill="none" stroke="#c3c3c3" stroke-width="1" opacity="0.3"/>
        <g id="Rectangle_254" data-name="Rectangle 254" transform="translate(112.318 284.266)" fill="#fff" stroke="#c3c3c3" stroke-width="1">
          <rect width="166.205" height="24.573" rx="3" stroke="none"/>
          <rect x="0.5" y="0.5" width="165.205" height="23.573" rx="2.5" fill="none"/>
        </g>
        <g id="Group_269" data-name="Group 269" transform="translate(112.318 314.713)">
          <rect id="Rectangle_69" data-name="Rectangle 69" width="13.338" height="13.338" rx="6.669" transform="translate(0 0)" fill="#999"/>
        </g>
        <g id="Rectangle_271" data-name="Rectangle 271" transform="translate(233.844 133.699)" fill="#fff" stroke="#c3c3c3" stroke-width="1">
          <rect width="95.166" height="24.573" rx="3" stroke="none"/>
          <rect x="0.5" y="0.5" width="94.166" height="23.573" rx="2.5" fill="none"/>
        </g>
        <g id="Rectangle_273" data-name="Rectangle 273" transform="translate(288.352 284.266)" fill="#fff" stroke="#c3c3c3" stroke-width="1">
          <rect width="68.805" height="24.573" rx="3" stroke="none"/>
          <rect x="0.5" y="0.5" width="67.805" height="23.573" rx="2.5" fill="none"/>
        </g>
        <g id="Rectangle_274" data-name="Rectangle 274" transform="translate(366.987 284.266)" fill="#fff" stroke="#c3c3c3" stroke-width="1">
          <rect width="113.484" height="24.573" rx="3" stroke="none"/>
          <rect x="0.5" y="0.5" width="112.484" height="23.573" rx="2.5" fill="none"/>
        </g>
        <rect id="Rectangle_385" data-name="Rectangle 385" width="97.846" height="7.149" transform="translate(247.695 76.51)" fill="#707070"/>
        <rect id="Rectangle_386" data-name="Rectangle 386" width="57.189" height="7.149" transform="translate(111.871 106.892)" fill="#c3c3c3"/>
        <rect id="Rectangle_387" data-name="Rectangle 387" width="57.189" height="7.149" transform="translate(111.871 122.976)" fill="#c3c3c3"/>
        <rect id="Rectangle_388" data-name="Rectangle 388" width="57.189" height="7.149" transform="translate(233.398 122.976)" fill="#c3c3c3"/>
        <rect id="Rectangle_389" data-name="Rectangle 389" width="57.189" height="7.149" transform="translate(111.871 166.761)" fill="#c3c3c3"/>
        <rect id="Rectangle_390" data-name="Rectangle 390" width="57.189" height="7.149" transform="translate(111.871 254.331)" fill="#c3c3c3"/>
        <rect id="Rectangle_391" data-name="Rectangle 391" width="57.189" height="7.149" transform="translate(111.871 274.437)" fill="#c3c3c3"/>
        <rect id="Rectangle_392" data-name="Rectangle 392" width="46.019" height="7.149" transform="translate(288.352 274.437)" fill="#c3c3c3"/>
        <rect id="Rectangle_393" data-name="Rectangle 393" width="46.019" height="7.149" transform="translate(366.987 274.437)" fill="#c3c3c3"/>
        <rect id="Rectangle_394" data-name="Rectangle 394" width="46.019" height="7.149" transform="translate(128.403 318.222)" fill="#c3c3c3"/>
        <rect id="Rectangle_395" data-name="Rectangle 395" width="305.156" height="7.149" transform="translate(110.531 350.837)" fill="#c3c3c3"/>
        <rect id="Rectangle_396" data-name="Rectangle 396" width="46.019" height="7.149" transform="translate(413.006 387.921)" fill="#fff" opacity="0.29"/>
      </g>
    </g>
    <g id="Group_381" data-name="Group 381" transform="translate(-338 -1075.475)">
      <path id="Path_217" data-name="Path 217" d="M153.724,203.843A3.843,3.843,0,0,0,149.881,200H110.3a3.843,3.843,0,0,0,0,7.685h39.58A3.843,3.843,0,0,0,153.724,203.843Z" transform="translate(623.194 1165.379)" fill="#fda726"/>
      <path id="Path_218" data-name="Path 218" d="M110.3,280a3.843,3.843,0,0,0,0,7.685H134.34a3.843,3.843,0,1,0,0-7.685Z" transform="translate(623.194 1100.749)" fill="#fda726"/>
      <path id="Path_220" data-name="Path 220" d="M286.577,275.4a11.54,11.54,0,0,0-16.3,0l-21.1,21.05a3.844,3.844,0,0,0-.963,1.6l-4.594,15.126a3.842,3.842,0,0,0,4.7,4.82l15.51-4.3a3.842,3.842,0,0,0,1.689-.983L286.577,291.7A11.541,11.541,0,0,0,286.577,275.4ZM260.81,306.559l-7.8,2.161,2.284-7.518L269.526,287l5.435,5.435Zm20.335-20.3-.745.743-5.435-5.435.742-.74a3.843,3.843,0,0,1,5.437,5.432Z" transform="translate(512.518 1107.193)" fill="#fda726"/>
      <path id="Path_221" data-name="Path 221" d="M149.881,120H110.3a3.843,3.843,0,1,0,0,7.685h39.58a3.843,3.843,0,1,0,0-7.685Z" transform="translate(623.194 1230.008)" fill="#fda726"/>
    </g>
  </g>
</svg>
