<svg xmlns="http://www.w3.org/2000/svg" width="179" height="194.385" viewBox="0 0 179 194.385">
    <defs>
        <style>
            .cls-1{fill:#fff}.cls-2{fill:none}.cls-3{fill:#dd9325}.cls-4{fill:#304c93}.cls-5,.cls-6{stroke:none}.cls-6{fill:#de9326}
        </style>
    </defs>
    <g id="Group_613" data-name="Group 613" transform="translate(-594 -643.935)">
        <g id="Group_1" data-name="Group 1" transform="translate(594 638.6)">
            <path id="Polygon_1" d="M111.493 0A25 25 0 0 1 133.1 12.433l27.421 47.158a25 25 0 0 1 0 25.134L133.1 131.883a25 25 0 0 1-21.612 12.433H56.341a25 25 0 0 1-21.612-12.433L7.307 84.725a25 25 0 0 1 0-25.134l27.422-47.158A25 25 0 0 1 56.341 0z" class="cls-1" data-name="Polygon 1" transform="rotate(90 71.312 89.923)"/>
            <g id="Path_1582" class="cls-2" data-name="Path 1582">
                <path d="M133.5 0a35 35 0 0 1 30.371 17.6l31.219 54.5a35 35 0 0 1 0 34.792l-31.216 54.5A35 35 0 0 1 133.5 179H71.551a35 35 0 0 1-30.371-17.6L9.964 106.9a35 35 0 0 1 0-34.792L41.18 17.6A35 35 0 0 1 71.551 0z" class="cls-5" transform="rotate(90 89.5 89.5)"/>
                <path d="M71.551 1a34.042 34.042 0 0 0-17.05 4.584c-5.175 3-9.48 7.328-12.453 12.517l-31.216 54.5A34.053 34.053 0 0 0 6.335 89.5c0 5.919 1.555 11.762 4.497 16.899l31.216 54.5a34.041 34.041 0 0 0 12.453 12.516c5.174 3 11.07 4.585 17.05 4.585h61.952c5.98 0 11.877-1.586 17.05-4.585 5.175-2.999 9.481-7.327 12.453-12.517l31.217-54.5A34.053 34.053 0 0 0 198.72 89.5c0-5.92-1.555-11.763-4.497-16.899l-31.217-54.5a34.042 34.042 0 0 0-12.452-12.517A34.042 34.042 0 0 0 133.504 1H71.55m0-1h61.952a35 35 0 0 1 30.371 17.604l31.216 54.5a35 35 0 0 1 0 34.792l-31.216 54.5A35 35 0 0 1 133.504 179H71.55a35 35 0 0 1-30.37-17.605l-31.217-54.5a35 35 0 0 1 0-34.791l31.216-54.5A35 35 0 0 1 71.551 0z" class="cls-6" transform="rotate(90 89.5 89.5)"/>
            </g>
        </g>
        <g id="Group_296" data-name="Group 296" transform="translate(-16)">
            <path id="Path_16" d="M129.152 26.548l-8.573-14.209a1.253 1.253 0 0 0-2.145 0l-8.573 14.209a1.252 1.252 0 0 0 1.072 1.9h2.22v6.765h-9.593a1.252 1.252 0 0 0-1.252 1.252v4.383h-9.589a1.252 1.252 0 0 0-1.252 1.252v4.383h-9.589a1.252 1.252 0 0 0-1.252 1.252v16.959a1.252 1.252 0 0 0 1.252 1.252h42.729a1.252 1.252 0 0 0 1.252-1.252V28.448h2.221a1.253 1.253 0 0 0 1.072-1.9zM83.13 48.989h8.337v14.453H83.13zm10.841-5.636h8.336v20.089h-8.335zm10.841-5.636h8.342v25.725h-8.342zm19.794-11.774a1.253 1.253 0 0 0-1.252 1.252v36.247h-7.7V28.448h2.259a1.252 1.252 0 1 0 0-2.5h-4.766l6.355-10.532 6.355 10.532zm0 0" class="cls-3" data-name="Path 16" transform="translate(598.842 696.35)"/>
            <path id="Path_17" d="M33.562 58.708H5.413V4.993l.657.871a1.252 1.252 0 1 0 2-1.508L5.161.5a1.252 1.252 0 0 0-2 0L.252 4.356a1.252 1.252 0 1 0 2 1.508l.657-.871v53.715H1.455a1.252 1.252 0 0 0 0 2.5h1.453v1.453a1.252 1.252 0 1 0 2.5 0v-1.448h28.154a1.252 1.252 0 0 0 0-2.5zm0 0" class="cls-4" data-name="Path 17" transform="translate(669.37 706.613)"/>
            <path id="Path_18" d="M299.467 469.548a1.24 1.24 0 0 0-.115-.217 1.191 1.191 0 0 0-.156-.19 1.168 1.168 0 0 0-.19-.155 1.194 1.194 0 0 0-.217-.115 1.244 1.244 0 0 0-.724-.071 1.307 1.307 0 0 0-.234.071 1.23 1.23 0 0 0-.215.115 1.167 1.167 0 0 0-.19.155 1.251 1.251 0 0 0-.157.19 1.208 1.208 0 0 0-.115.217 1.263 1.263 0 0 0-.071.234 1.24 1.24 0 0 0-.024.244 1.27 1.27 0 0 0 .024.246 1.318 1.318 0 0 0 .071.234 1.252 1.252 0 0 0 .115.216 1.275 1.275 0 0 0 .157.19 1.241 1.241 0 0 0 .406.271 1.3 1.3 0 0 0 .234.071 1.227 1.227 0 0 0 .245.024 1.211 1.211 0 0 0 .245-.024 1.242 1.242 0 0 0 .234-.071 1.224 1.224 0 0 0 .217-.115 1.28 1.28 0 0 0 .19-.157 1.213 1.213 0 0 0 .156-.19 1.286 1.286 0 0 0 .115-.216 1.313 1.313 0 0 0 .071-.234 1.234 1.234 0 0 0 .025-.246 1.205 1.205 0 0 0-.025-.244 1.259 1.259 0 0 0-.072-.233zm0 0" class="cls-4" data-name="Path 18" transform="translate(409.514 296.547)"/>
            <path id="Path_19" d="M357.223 448.7l-3.858-2.909a1.252 1.252 0 1 0-1.508 2l.871.657h-15.842a1.252 1.252 0 1 0 0 2.5h15.842l-.871.657a1.252 1.252 0 1 0 1.508 2l3.858-2.909a1.252 1.252 0 0 0 0-2zm0 0" class="cls-4" data-name="Path 19" transform="translate(375.77 316.869)"/>
            <path id="Path_20" d="M102.278 77.326a1.253 1.253 0 0 0-1.817-.836l-3.89 2.093a1.252 1.252 0 1 0 1.187 2.206l.781-.421c-2.116 4.547-7.482 9.323-14.3 12.666a41.857 41.857 0 0 1-7 2.7 1.252 1.252 0 1 0 .682 2.41 44.316 44.316 0 0 0 7.418-2.86c7.164-3.511 12.878-8.6 15.33-13.573l.1.467a1.253 1.253 0 0 0 2.448-.534zm0 0" class="cls-4" data-name="Path 20" transform="translate(602.6 639.832)"/>
        </g>
    </g>
</svg>
