<svg xmlns="http://www.w3.org/2000/svg" width="75" height="82" viewBox="0 0 75 82">
  <g id="Group_549" data-name="Group 549" transform="translate(-791 -1874)">
    <path id="Polygon_7" data-name="Polygon 7" d="M55.57,0a10,10,0,0,1,8.774,5.2L79.378,32.7a10,10,0,0,1,0,9.593L64.344,69.8A10,10,0,0,1,55.57,75H26.43a10,10,0,0,1-8.774-5.2L2.622,42.3a10,10,0,0,1,0-9.593L17.656,5.2A10,10,0,0,1,26.43,0Z" transform="translate(866 1874) rotate(90)" fill="#cdc3fd"/>
    <path id="Polygon_6" data-name="Polygon 6" d="M44.333,0A10,10,0,0,1,53.1,5.186l11.258,20.5a10,10,0,0,1,0,9.627L53.1,55.814A10,10,0,0,1,44.333,61H22.667A10,10,0,0,1,13.9,55.814L2.644,35.314a10,10,0,0,1,0-9.627L13.9,5.186A10,10,0,0,1,22.667,0Z" transform="translate(859 1881) rotate(90)" fill="#353760"/>
    <g id="speech-bubble" transform="translate(815 1866.125)">
      <g id="Group_64" data-name="Group 64" transform="translate(0 36.5)">
        <path id="Path_27" data-name="Path 27" d="M24.994,50.744V39.362A2.867,2.867,0,0,0,22.133,36.5H2.862A2.867,2.867,0,0,0,0,39.362V50.744a2.867,2.867,0,0,0,2.862,2.862h.817v3.431A1.147,1.147,0,0,0,4.83,58.183h0a1.156,1.156,0,0,0,.867-.4L9.313,53.6H22.139A2.856,2.856,0,0,0,24.994,50.744ZM8.952,52.055a.779.779,0,0,0-.589.266l-3.14,3.628V52.827a.778.778,0,0,0-.779-.779H2.862a1.313,1.313,0,0,1-1.31-1.31V39.362a1.313,1.313,0,0,1,1.31-1.31H22.133a1.313,1.313,0,0,1,1.31,1.31V50.744a1.313,1.313,0,0,1-1.31,1.31Z" transform="translate(0 -36.5)" fill="#fff"/>
        <path id="Path_28" data-name="Path 28" d="M167.494,131.79a1.131,1.131,0,0,0,.861.4,1.147,1.147,0,0,0,.405-.076,1.135,1.135,0,0,0,.747-1.076v-3.431h.817a2.867,2.867,0,0,0,2.862-2.862V113.362a2.867,2.867,0,0,0-2.862-2.862.776.776,0,1,0,0,1.551,1.313,1.313,0,0,1,1.31,1.31v11.383a1.313,1.313,0,0,1-1.31,1.31h-1.589a.778.778,0,0,0-.779.779v3.121l-3.14-3.628a.769.769,0,0,0-.589-.266H152.579a.779.779,0,1,0,0,1.557h11.294Z" transform="translate(-142.19 -105.815)" fill="#fff"/>
        <circle id="Ellipse_62" data-name="Ellipse 62" cx="0.924" cy="0.924" r="0.924" transform="translate(11.573 7.901)" fill="#fff"/>
        <circle id="Ellipse_63" data-name="Ellipse 63" cx="0.924" cy="0.924" r="0.924" transform="translate(14.668 7.901)" fill="#fff"/>
        <circle id="Ellipse_64" data-name="Ellipse 64" cx="0.924" cy="0.924" r="0.924" transform="translate(8.477 7.901)" fill="#fff"/>
      </g>
    </g>
  </g>
</svg>
