<svg xmlns="http://www.w3.org/2000/svg" width="179" height="205.055" viewBox="0 0 179 205.055">
    <defs>
        <style>
            .cls-1{fill:#fff}.cls-2{fill:none}.cls-3{fill:#304c93}.cls-4,.cls-6{fill:#dd9325}.cls-5,.cls-6{stroke:none}
        </style>
    </defs>
    <g id="Group_299" data-name="Group 299" transform="translate(-919 -638.6)">
        <g id="Group_2" data-name="Group 2" transform="translate(919 638.6)">
            <path id="Polygon_1" d="M111.493 0A25 25 0 0 1 133.1 12.433l27.421 47.158a25 25 0 0 1 0 25.134L133.1 131.883a25 25 0 0 1-21.612 12.433H56.341a25 25 0 0 1-21.612-12.433L7.307 84.725a25 25 0 0 1 0-25.134l27.422-47.158A25 25 0 0 1 56.341 0z" class="cls-1" data-name="Polygon 1" transform="rotate(90 71.312 89.923)"/>
            <g id="Polygon_2" class="cls-2" data-name="Polygon 2">
                <path d="M133.5 0a35 35 0 0 1 30.371 17.6l31.216 54.5a35 35 0 0 1 0 34.791l-31.216 54.5A35 35 0 0 1 133.5 179H71.551a35 35 0 0 1-30.371-17.6L9.964 106.9a35 35 0 0 1 0-34.791L41.18 17.6A35 35 0 0 1 71.551 0z" class="cls-5" transform="rotate(90 89.5 89.5)"/>
                <path d="M71.551 1a34.042 34.042 0 0 0-17.05 4.584c-5.175 3-9.48 7.328-12.453 12.517l-31.216 54.5A34.053 34.053 0 0 0 6.335 89.5a34.053 34.053 0 0 0 4.497 16.899l31.216 54.5a34.041 34.041 0 0 0 12.453 12.517C59.675 176.415 65.57 178 71.55 178h61.952c5.98 0 11.877-1.585 17.05-4.584 5.175-3 9.481-7.328 12.453-12.517l31.217-54.5A34.053 34.053 0 0 0 198.72 89.5c0-5.92-1.555-11.763-4.497-16.899l-31.217-54.5a34.042 34.042 0 0 0-12.452-12.517A34.042 34.042 0 0 0 133.504 1H71.55m0-1h61.952a35 35 0 0 1 30.371 17.604l31.217 54.5a35 35 0 0 1 0 34.792l-31.217 54.5A35 35 0 0 1 133.504 179H71.55a35 35 0 0 1-30.37-17.604l-31.217-54.5a35 35 0 0 1 0-34.792l31.216-54.5A35 35 0 0 1 71.551 0z" class="cls-6" transform="rotate(90 89.5 89.5)"/>
            </g>
        </g>
        <g id="Group_294" data-name="Group 294" transform="translate(616 .771)">
            <g id="Group_11" data-name="Group 11" transform="translate(411.15 764.924)">
                <g id="Group_10" data-name="Group 10">
                    <path id="Path_4" d="M392.413 444.473a1.388 1.388 0 1 0 .407.982 1.4 1.4 0 0 0-.407-.982z" class="cls-3" data-name="Path 4" transform="translate(-390.042 -444.066)"/>
                </g>
            </g>
            <g id="Group_293" data-name="Group 293">
                <g id="Group_5" data-name="Group 5" transform="translate(383.612 711.629)">
                    <g id="Group_4" data-name="Group 4">
                        <path id="Path_1" d="M209.59 66.89a1.39 1.39 0 0 0-1.122-.945l-4.477-.649-2-4.056a1.389 1.389 0 0 0-1.246-.774 1.389 1.389 0 0 0-1.246.775l-2 4.058-4.477.652a1.389 1.389 0 0 0-.769 2.37l3.241 3.157-.764 4.459a1.389 1.389 0 0 0 2.016 1.464l4-2.106 4 2.1a1.389 1.389 0 0 0 2.015-1.465L206 71.473l3.239-3.159a1.389 1.389 0 0 0 .351-1.424zm-6.053 3.1a1.389 1.389 0 0 0-.4 1.23l.413 2.4-2.16-1.135a1.39 1.39 0 0 0-1.293 0l-2.159 1.136.412-2.4a1.389 1.389 0 0 0-.4-1.23l-1.747-1.7 2.414-.351a1.389 1.389 0 0 0 1.046-.76l1.079-2.188 1.08 2.187a1.389 1.389 0 0 0 1.046.76l2.414.35z" class="cls-4" data-name="Path 1" transform="translate(-191.828 -60.465)"/>
                    </g>
                </g>
                <g id="Group_7" data-name="Group 7" transform="translate(369.814 703.229)">
                    <g id="Group_6" data-name="Group 6">
                        <path id="Path_2" d="M137.279 40.584L131.121 23.2a1.384 1.384 0 0 0-.076-.173 16.974 16.974 0 0 0-3.839-18.067 16.8 16.8 0 0 0-9.639-4.8 17.085 17.085 0 0 0-10.384 1.862 1.389 1.389 0 0 0 1.317 2.445 14.172 14.172 0 1 1-5.762 5.765 1.389 1.389 0 1 0-2.446-1.318 17 17 0 0 0-.642 14.74l-7.007 14.913a1.389 1.389 0 0 0 1.425 1.97l8.853-1.075 4.868 7.473a1.389 1.389 0 0 0 1.164.631h.1a1.389 1.389 0 0 0 1.161-.8l4.875-10.466 3.967 10.9a1.389 1.389 0 0 0 2.4.382l5.5-7.02 8.726 1.842a1.389 1.389 0 0 0 1.6-1.823zm-28.528 2.738l-3.974-6.1a1.391 1.391 0 0 0-1.332-.621l-7.219.876 5.092-10.834a17.156 17.156 0 0 0 1.924 2.294 16.82 16.82 0 0 0 9.96 4.842zm17.933-5.654a1.389 1.389 0 0 0-1.381.5l-4.491 5.732-3.68-10.111a16.961 16.961 0 0 0 12.171-7.4l4.53 12.789z" class="cls-4" data-name="Path 2" transform="translate(-92.511)"/>
                    </g>
                </g>
                <g id="Group_9" data-name="Group 9" transform="translate(380.123 707.777)">
                    <g id="Group_8" data-name="Group 8">
                        <path id="Path_3" d="M169.1 33.157l-.01-.01a1.389 1.389 0 1 0-1.965 1.965l.01.01a1.389 1.389 0 1 0 1.965-1.965z" class="cls-4" data-name="Path 3" transform="translate(-166.714 -32.74)"/>
                    </g>
                </g>
                <g id="Group_13" data-name="Group 13" transform="translate(358.832 748.797)">
                    <g id="Group_12" data-name="Group 12">
                        <path id="Path_5" d="M80.383 334.444a5.866 5.866 0 0 0-7.9-3.02l-19.532 9.182a5 5 0 0 0-2.207-3.433L41.437 331a1.39 1.39 0 0 0-.767-.231H27.759v-1.389a1.389 1.389 0 0 0-1.389-1.389H14.846a1.389 1.389 0 0 0 0 2.779H24.98v20.007H14.846a1.389 1.389 0 1 0 0 2.779h11.523a1.389 1.389 0 0 0 1.389-1.389v-.092l4.639 1.42a1.387 1.387 0 0 0 .407.061h15.333a24.675 24.675 0 0 0 10.724-2.468l3.993-1.94a1.389 1.389 0 0 0-1.215-2.5l-3.993 1.94a21.881 21.881 0 0 1-9.509 2.188H33.013l-5.254-1.608V333.55h12.492l8.962 5.939a2.281 2.281 0 0 1-.66 4.1 2.284 2.284 0 0 1-1.828-.278l-6.268-4a1.389 1.389 0 1 0-1.5 2.342l6.268 4a5.068 5.068 0 0 0 4.056.617 5 5 0 0 0 3.247-2.718h.375a1.388 1.388 0 0 0 .591-.132l20.172-9.482a3.087 3.087 0 0 1 2.663 5.57l-5.086 2.472a1.389 1.389 0 1 0 1.215 2.5l5.086-2.472a5.864 5.864 0 0 0 2.839-7.564z" class="cls-3" data-name="Path 5" transform="translate(-13.457 -327.992)"/>
                    </g>
                </g>
            </g>
            <g id="Group_15" data-name="Group 15" transform="translate(365.77 757.631)">
                <g id="Group_14" data-name="Group 14">
                    <path id="Path_6" d="M65.822 392.033a1.39 1.39 0 0 0-1.963-.086l-.012.011a1.389 1.389 0 0 0 1.877 2.049l.012-.011a1.389 1.389 0 0 0 .086-1.963z" class="cls-3" data-name="Path 6" transform="translate(-63.396 -391.582)"/>
                </g>
            </g>
        </g>
    </g>
</svg>
