<svg xmlns="http://www.w3.org/2000/svg" width="179" height="205.055" viewBox="0 0 179 205.055">
    <defs>
        <style>
            .cls-1{fill:#fff}.cls-2{fill:none}.cls-3,.cls-8{fill:#de9325}.cls-4{fill:#dd9325}.cls-5{fill:#304c93}.cls-6{fill:#de9326}.cls-7,.cls-8{stroke:none}
        </style>
    </defs>
    <g id="Group_298" data-name="Group 298" transform="translate(-303 -638.6)">
        <path id="Polygon_1" d="M111.493 0A25 25 0 0 1 133.1 12.433l27.421 47.158a25 25 0 0 1 0 25.134L133.1 131.883a25 25 0 0 1-21.612 12.433H56.341a25 25 0 0 1-21.612-12.433L7.307 84.725a25 25 0 0 1 0-25.134l27.422-47.158A25 25 0 0 1 56.341 0z" class="cls-1" data-name="Polygon 1" transform="rotate(90 -96.489 560.723)"/>
        <g id="Polygon_2" class="cls-2" data-name="Polygon 2">
            <path d="M133.5 0a35 35 0 0 1 30.371 17.6l31.219 54.5a35 35 0 0 1 0 34.792l-31.216 54.5A35 35 0 0 1 133.5 179H71.551a35 35 0 0 1-30.371-17.6L9.964 106.9a35 35 0 0 1 0-34.792L41.18 17.6A35 35 0 0 1 71.551 0z" class="cls-7" transform="rotate(90 -78.3 560.3)"/>
            <path d="M71.551 1a34.042 34.042 0 0 0-17.05 4.584c-5.175 3-9.48 7.328-12.453 12.517l-31.216 54.5A34.053 34.053 0 0 0 6.335 89.5c0 5.919 1.555 11.762 4.497 16.899l31.216 54.5a34.041 34.041 0 0 0 12.453 12.516c5.174 3 11.07 4.585 17.05 4.585h61.952c5.98 0 11.877-1.586 17.05-4.585 5.175-2.999 9.481-7.327 12.453-12.517l31.217-54.5A34.053 34.053 0 0 0 198.72 89.5c0-5.92-1.555-11.763-4.497-16.899l-31.217-54.5a34.042 34.042 0 0 0-12.452-12.517A34.042 34.042 0 0 0 133.504 1H71.55m0-1h61.952a35 35 0 0 1 30.371 17.604l31.216 54.5a35 35 0 0 1 0 34.792l-31.216 54.5A35 35 0 0 1 133.504 179H71.55a35 35 0 0 1-30.37-17.605l-31.217-54.5a35 35 0 0 1 0-34.791l31.216-54.5A35 35 0 0 1 71.551 0z" class="cls-8" transform="rotate(90 -78.3 560.3)"/>
        </g>
        <g id="Group_295" data-name="Group 295" transform="translate(-620 .078)">
            <g id="Group_17" data-name="Group 17" transform="translate(1007.019 737.527)">
                <g id="Group_16" data-name="Group 16">
                    <path id="Path_7" d="M253.9 240.816a1.357 1.357 0 1 0 0 1.918 1.356 1.356 0 0 0 0-1.918z" class="cls-3" data-name="Path 7" transform="translate(-251.587 -240.418)"/>
                </g>
            </g>
            <g id="Group_19" data-name="Group 19" transform="translate(1015.022 718.676)">
                <g id="Group_18" data-name="Group 18">
                    <path id="Path_8" d="M322.176 103.4a6.781 6.781 0 1 0 0 9.59 6.778 6.778 0 0 0 0-9.59zm-1.918 7.672a4.069 4.069 0 1 1 0-5.754 4.074 4.074 0 0 1 0 5.757z" class="cls-4" data-name="Path 8" transform="translate(-310.603 -101.415)"/>
                </g>
            </g>
            <g id="Group_21" data-name="Group 21" transform="translate(985.92 704.922)">
                <g id="Group_20" data-name="Group 20">
                    <path id="Path_9" d="M152.038.4a1.351 1.351 0 0 0-1.008-.4 60.25 60.25 0 0 0-16.287 3.372 45.408 45.408 0 0 0-17.23 10.45c-1 1-1.98 2.068-2.914 3.173-4.428-2.606-7.976-1.789-10.219-.589-5.165 2.764-8.362 10.269-8.362 15.637a1.357 1.357 0 0 0 2.316.957 8.634 8.634 0 0 1 7.181-2.409l.475.475a47.7 47.7 0 0 0-2.24 6.587 3.839 3.839 0 0 0 .164 2.356 12.843 12.843 0 0 0-3.663 2.582c-3.491 3.491-4.2 12-4.229 12.36a1.356 1.356 0 0 0 1.352 1.463h.107c.36-.028 8.869-.737 12.36-4.228a12.844 12.844 0 0 0 2.582-3.662 3.83 3.83 0 0 0 2.357.163 47.709 47.709 0 0 0 6.586-2.24l.475.475a8.634 8.634 0 0 1-2.409 7.181 1.356 1.356 0 0 0 .959 2.315c5.368 0 12.873-3.2 15.637-8.361 1.2-2.243 2.018-5.791-.589-10.219 1.1-.934 2.169-1.91 3.173-2.914a45.412 45.412 0 0 0 10.45-17.23A60.249 60.249 0 0 0 152.434 1.4a1.356 1.356 0 0 0-.396-1zM99.05 29.127c.842-4.077 3.29-8.551 6.61-10.328a7.226 7.226 0 0 1 7.222.341 54.837 54.837 0 0 0-5.7 9.288 1.43 1.43 0 0 0-.718-.422 11.592 11.592 0 0 0-7.414 1.121zm8.873 21.139c-1.865 1.865-6.239 2.848-9 3.25.4-2.765 1.385-7.14 3.25-9a9.774 9.774 0 0 1 3.472-2.282l4.564 4.564a9.772 9.772 0 0 1-2.286 3.468zm6.183-4.208a1.273 1.273 0 0 1-1.185-.384l-2.656-2.656-3.5-3.5a1.273 1.273 0 0 1-.386-1.185 44.039 44.039 0 0 1 1.693-5.18l11.215 11.215a44.01 44.01 0 0 1-5.18 1.69zm19.53.717c-1.777 3.32-6.251 5.767-10.328 6.61a11.543 11.543 0 0 0 1.112-7.449 1.417 1.417 0 0 0-.412-.685 54.858 54.858 0 0 0 9.288-5.7 7.227 7.227 0 0 1 .341 7.224zM136.695 33a49.225 49.225 0 0 1-3.911 3.509 52.106 52.106 0 0 1-10.812 6.7L109.22 30.464a52.1 52.1 0 0 1 6.7-10.812 49.22 49.22 0 0 1 3.509-3.912 42.29 42.29 0 0 1 15.417-9.518l11.364 11.364A42.287 42.287 0 0 1 136.695 33zm10.493-18.277l-9.48-9.48a60.975 60.975 0 0 1 11.9-2.421 60.986 60.986 0 0 1-2.42 11.905z" class="cls-5" data-name="Path 9" transform="translate(-96.018)"/>
                </g>
            </g>
            <g id="Group_23" data-name="Group 23" transform="translate(999.347 760.543)">
                <g id="Group_22" data-name="Group 22">
                    <path id="Path_10" d="M201.171 410.518a1.356 1.356 0 0 0-1.918 0l-3.835 3.837a1.356 1.356 0 0 0 1.918 1.918l3.835-3.837a1.356 1.356 0 0 0 0-1.918z" class="cls-4" data-name="Path 10" transform="translate(-195.021 -410.121)"/>
                </g>
            </g>
            <g id="Group_25" data-name="Group 25" transform="translate(980.166 741.363)">
                <g id="Group_24" data-name="Group 24">
                    <path id="Path_11" d="M59.744 269.1a1.356 1.356 0 0 0-1.918 0l-3.837 3.835a1.356 1.356 0 1 0 1.918 1.918l3.837-3.835a1.356 1.356 0 0 0 0-1.918z" class="cls-6" data-name="Path 11" transform="translate(-53.592 -268.701)"/>
                </g>
            </g>
            <g id="Group_27" data-name="Group 27" transform="translate(984.405 762.463)">
                <g id="Group_26" data-name="Group 26">
                    <path id="Path_12" d="M96.354 424.668a1.356 1.356 0 0 0-1.918 0l-9.187 9.186a1.356 1.356 0 1 0 1.918 1.918l9.187-9.186a1.356 1.356 0 0 0 0-1.918z" class="cls-3" data-name="Path 12" transform="translate(-84.851 -424.271)"/>
                </g>
            </g>
            <g id="Group_29" data-name="Group 29" transform="translate(973.555 762.463)">
                <g id="Group_28" data-name="Group 28">
                    <path id="Path_13" d="M16.354 424.668a1.356 1.356 0 0 0-1.918 0l-9.187 9.186a1.356 1.356 0 1 0 1.918 1.918l9.187-9.186a1.356 1.356 0 0 0 0-1.918z" class="cls-3" data-name="Path 13" transform="translate(-4.851 -424.271)"/>
                </g>
            </g>
            <g id="Group_31" data-name="Group 31" transform="translate(972.897 750.953)">
                <g id="Group_30" data-name="Group 30">
                    <path id="Path_14" d="M11.5 339.807a1.356 1.356 0 0 0-1.918 0L.4 348.995a1.356 1.356 0 1 0 1.918 1.918l9.186-9.187a1.356 1.356 0 0 0-.004-1.919z" class="cls-6" data-name="Path 14" transform="translate(-.001 -339.41)"/>
                </g>
            </g>
            <g id="Group_33" data-name="Group 33" transform="translate(1010.854 731.773)">
                <g id="Group_32" data-name="Group 32">
                    <path id="Path_15" d="M284.1 198.387a1.356 1.356 0 0 0-1.918 0l-1.918 1.918a1.356 1.356 0 1 0 1.918 1.918l1.918-1.918a1.356 1.356 0 0 0 0-1.918z" class="cls-6" data-name="Path 15" transform="translate(-279.871 -197.99)"/>
                </g>
            </g>
        </g>
    </g>
</svg>
